%TF.GenerationSoftware,KiCad,Pcbnew,(5.1.9-0-10_14)*%
%TF.CreationDate,2021-02-18T15:53:41+03:00*%
%TF.ProjectId,DA14531MOD-Breakout,44413134-3533-4314-9d4f-442d42726561,rev?*%
%TF.SameCoordinates,Original*%
%TF.FileFunction,Copper,L1,Top*%
%TF.FilePolarity,Positive*%
%FSLAX46Y46*%
G04 Gerber Fmt 4.6, Leading zero omitted, Abs format (unit mm)*
G04 Created by KiCad (PCBNEW (5.1.9-0-10_14)) date 2021-02-18 15:53:41*
%MOMM*%
%LPD*%
G01*
G04 APERTURE LIST*
%TA.AperFunction,EtchedComponent*%
%ADD10C,0.010000*%
%TD*%
%TA.AperFunction,SMDPad,CuDef*%
%ADD11R,0.100000X0.100000*%
%TD*%
%TA.AperFunction,ComponentPad*%
%ADD12O,1.700000X1.700000*%
%TD*%
%TA.AperFunction,ComponentPad*%
%ADD13R,1.700000X1.700000*%
%TD*%
%TA.AperFunction,ViaPad*%
%ADD14C,0.800000*%
%TD*%
%TA.AperFunction,Conductor*%
%ADD15C,0.250000*%
%TD*%
%TA.AperFunction,Conductor*%
%ADD16C,0.254000*%
%TD*%
%TA.AperFunction,Conductor*%
%ADD17C,0.100000*%
%TD*%
G04 APERTURE END LIST*
D10*
%TO.C,U1*%
G36*
X85680000Y-78580000D02*
G01*
X85080000Y-78580000D01*
X85053832Y-78580685D01*
X85027736Y-78582739D01*
X85001783Y-78586156D01*
X84976044Y-78590926D01*
X84950590Y-78597037D01*
X84925492Y-78604472D01*
X84900816Y-78613210D01*
X84876632Y-78623227D01*
X84853005Y-78634497D01*
X84830000Y-78646987D01*
X84807680Y-78660665D01*
X84786107Y-78675492D01*
X84765340Y-78691427D01*
X84745435Y-78708428D01*
X84726447Y-78726447D01*
X84708428Y-78745435D01*
X84691427Y-78765340D01*
X84675492Y-78786107D01*
X84660665Y-78807680D01*
X84646987Y-78830000D01*
X84634497Y-78853005D01*
X84623227Y-78876632D01*
X84613210Y-78900816D01*
X84604472Y-78925492D01*
X84597037Y-78950590D01*
X84590926Y-78976044D01*
X84586156Y-79001783D01*
X84582739Y-79027736D01*
X84580685Y-79053832D01*
X84580000Y-79080000D01*
X84580685Y-79106168D01*
X84582739Y-79132264D01*
X84586156Y-79158217D01*
X84590926Y-79183956D01*
X84597037Y-79209410D01*
X84604472Y-79234508D01*
X84613210Y-79259184D01*
X84623227Y-79283368D01*
X84634497Y-79306995D01*
X84646987Y-79330000D01*
X84660665Y-79352320D01*
X84675492Y-79373893D01*
X84691427Y-79394660D01*
X84708428Y-79414565D01*
X84726447Y-79433553D01*
X84745435Y-79451572D01*
X84765340Y-79468573D01*
X84786107Y-79484508D01*
X84807680Y-79499335D01*
X84830000Y-79513013D01*
X84853005Y-79525503D01*
X84876632Y-79536773D01*
X84900816Y-79546790D01*
X84925492Y-79555528D01*
X84950590Y-79562963D01*
X84976044Y-79569074D01*
X85001783Y-79573844D01*
X85027736Y-79577261D01*
X85053832Y-79579315D01*
X85080000Y-79580000D01*
X85680000Y-79580000D01*
X85680000Y-78580000D01*
G37*
X85680000Y-78580000D02*
X85080000Y-78580000D01*
X85053832Y-78580685D01*
X85027736Y-78582739D01*
X85001783Y-78586156D01*
X84976044Y-78590926D01*
X84950590Y-78597037D01*
X84925492Y-78604472D01*
X84900816Y-78613210D01*
X84876632Y-78623227D01*
X84853005Y-78634497D01*
X84830000Y-78646987D01*
X84807680Y-78660665D01*
X84786107Y-78675492D01*
X84765340Y-78691427D01*
X84745435Y-78708428D01*
X84726447Y-78726447D01*
X84708428Y-78745435D01*
X84691427Y-78765340D01*
X84675492Y-78786107D01*
X84660665Y-78807680D01*
X84646987Y-78830000D01*
X84634497Y-78853005D01*
X84623227Y-78876632D01*
X84613210Y-78900816D01*
X84604472Y-78925492D01*
X84597037Y-78950590D01*
X84590926Y-78976044D01*
X84586156Y-79001783D01*
X84582739Y-79027736D01*
X84580685Y-79053832D01*
X84580000Y-79080000D01*
X84580685Y-79106168D01*
X84582739Y-79132264D01*
X84586156Y-79158217D01*
X84590926Y-79183956D01*
X84597037Y-79209410D01*
X84604472Y-79234508D01*
X84613210Y-79259184D01*
X84623227Y-79283368D01*
X84634497Y-79306995D01*
X84646987Y-79330000D01*
X84660665Y-79352320D01*
X84675492Y-79373893D01*
X84691427Y-79394660D01*
X84708428Y-79414565D01*
X84726447Y-79433553D01*
X84745435Y-79451572D01*
X84765340Y-79468573D01*
X84786107Y-79484508D01*
X84807680Y-79499335D01*
X84830000Y-79513013D01*
X84853005Y-79525503D01*
X84876632Y-79536773D01*
X84900816Y-79546790D01*
X84925492Y-79555528D01*
X84950590Y-79562963D01*
X84976044Y-79569074D01*
X85001783Y-79573844D01*
X85027736Y-79577261D01*
X85053832Y-79579315D01*
X85080000Y-79580000D01*
X85680000Y-79580000D01*
X85680000Y-78580000D01*
G36*
X86580000Y-80080000D02*
G01*
X85080000Y-80080000D01*
X85053832Y-80080685D01*
X85027736Y-80082739D01*
X85001783Y-80086156D01*
X84976044Y-80090926D01*
X84950590Y-80097037D01*
X84925492Y-80104472D01*
X84900816Y-80113210D01*
X84876632Y-80123227D01*
X84853005Y-80134497D01*
X84830000Y-80146987D01*
X84807680Y-80160665D01*
X84786107Y-80175492D01*
X84765340Y-80191427D01*
X84745435Y-80208428D01*
X84726447Y-80226447D01*
X84708428Y-80245435D01*
X84691427Y-80265340D01*
X84675492Y-80286107D01*
X84660665Y-80307680D01*
X84646987Y-80330000D01*
X84634497Y-80353005D01*
X84623227Y-80376632D01*
X84613210Y-80400816D01*
X84604472Y-80425492D01*
X84597037Y-80450590D01*
X84590926Y-80476044D01*
X84586156Y-80501783D01*
X84582739Y-80527736D01*
X84580685Y-80553832D01*
X84580000Y-80580000D01*
X84580685Y-80606168D01*
X84582739Y-80632264D01*
X84586156Y-80658217D01*
X84590926Y-80683956D01*
X84597037Y-80709410D01*
X84604472Y-80734508D01*
X84613210Y-80759184D01*
X84623227Y-80783368D01*
X84634497Y-80806995D01*
X84646987Y-80830000D01*
X84660665Y-80852320D01*
X84675492Y-80873893D01*
X84691427Y-80894660D01*
X84708428Y-80914565D01*
X84726447Y-80933553D01*
X84745435Y-80951572D01*
X84765340Y-80968573D01*
X84786107Y-80984508D01*
X84807680Y-80999335D01*
X84830000Y-81013013D01*
X84853005Y-81025503D01*
X84876632Y-81036773D01*
X84900816Y-81046790D01*
X84925492Y-81055528D01*
X84950590Y-81062963D01*
X84976044Y-81069074D01*
X85001783Y-81073844D01*
X85027736Y-81077261D01*
X85053832Y-81079315D01*
X85080000Y-81080000D01*
X86580000Y-81080000D01*
X86580000Y-80080000D01*
G37*
X86580000Y-80080000D02*
X85080000Y-80080000D01*
X85053832Y-80080685D01*
X85027736Y-80082739D01*
X85001783Y-80086156D01*
X84976044Y-80090926D01*
X84950590Y-80097037D01*
X84925492Y-80104472D01*
X84900816Y-80113210D01*
X84876632Y-80123227D01*
X84853005Y-80134497D01*
X84830000Y-80146987D01*
X84807680Y-80160665D01*
X84786107Y-80175492D01*
X84765340Y-80191427D01*
X84745435Y-80208428D01*
X84726447Y-80226447D01*
X84708428Y-80245435D01*
X84691427Y-80265340D01*
X84675492Y-80286107D01*
X84660665Y-80307680D01*
X84646987Y-80330000D01*
X84634497Y-80353005D01*
X84623227Y-80376632D01*
X84613210Y-80400816D01*
X84604472Y-80425492D01*
X84597037Y-80450590D01*
X84590926Y-80476044D01*
X84586156Y-80501783D01*
X84582739Y-80527736D01*
X84580685Y-80553832D01*
X84580000Y-80580000D01*
X84580685Y-80606168D01*
X84582739Y-80632264D01*
X84586156Y-80658217D01*
X84590926Y-80683956D01*
X84597037Y-80709410D01*
X84604472Y-80734508D01*
X84613210Y-80759184D01*
X84623227Y-80783368D01*
X84634497Y-80806995D01*
X84646987Y-80830000D01*
X84660665Y-80852320D01*
X84675492Y-80873893D01*
X84691427Y-80894660D01*
X84708428Y-80914565D01*
X84726447Y-80933553D01*
X84745435Y-80951572D01*
X84765340Y-80968573D01*
X84786107Y-80984508D01*
X84807680Y-80999335D01*
X84830000Y-81013013D01*
X84853005Y-81025503D01*
X84876632Y-81036773D01*
X84900816Y-81046790D01*
X84925492Y-81055528D01*
X84950590Y-81062963D01*
X84976044Y-81069074D01*
X85001783Y-81073844D01*
X85027736Y-81077261D01*
X85053832Y-81079315D01*
X85080000Y-81080000D01*
X86580000Y-81080000D01*
X86580000Y-80080000D01*
G36*
X86580000Y-81580000D02*
G01*
X85080000Y-81580000D01*
X85053832Y-81580685D01*
X85027736Y-81582739D01*
X85001783Y-81586156D01*
X84976044Y-81590926D01*
X84950590Y-81597037D01*
X84925492Y-81604472D01*
X84900816Y-81613210D01*
X84876632Y-81623227D01*
X84853005Y-81634497D01*
X84830000Y-81646987D01*
X84807680Y-81660665D01*
X84786107Y-81675492D01*
X84765340Y-81691427D01*
X84745435Y-81708428D01*
X84726447Y-81726447D01*
X84708428Y-81745435D01*
X84691427Y-81765340D01*
X84675492Y-81786107D01*
X84660665Y-81807680D01*
X84646987Y-81830000D01*
X84634497Y-81853005D01*
X84623227Y-81876632D01*
X84613210Y-81900816D01*
X84604472Y-81925492D01*
X84597037Y-81950590D01*
X84590926Y-81976044D01*
X84586156Y-82001783D01*
X84582739Y-82027736D01*
X84580685Y-82053832D01*
X84580000Y-82080000D01*
X84580685Y-82106168D01*
X84582739Y-82132264D01*
X84586156Y-82158217D01*
X84590926Y-82183956D01*
X84597037Y-82209410D01*
X84604472Y-82234508D01*
X84613210Y-82259184D01*
X84623227Y-82283368D01*
X84634497Y-82306995D01*
X84646987Y-82330000D01*
X84660665Y-82352320D01*
X84675492Y-82373893D01*
X84691427Y-82394660D01*
X84708428Y-82414565D01*
X84726447Y-82433553D01*
X84745435Y-82451572D01*
X84765340Y-82468573D01*
X84786107Y-82484508D01*
X84807680Y-82499335D01*
X84830000Y-82513013D01*
X84853005Y-82525503D01*
X84876632Y-82536773D01*
X84900816Y-82546790D01*
X84925492Y-82555528D01*
X84950590Y-82562963D01*
X84976044Y-82569074D01*
X85001783Y-82573844D01*
X85027736Y-82577261D01*
X85053832Y-82579315D01*
X85080000Y-82580000D01*
X86580000Y-82580000D01*
X86580000Y-81580000D01*
G37*
X86580000Y-81580000D02*
X85080000Y-81580000D01*
X85053832Y-81580685D01*
X85027736Y-81582739D01*
X85001783Y-81586156D01*
X84976044Y-81590926D01*
X84950590Y-81597037D01*
X84925492Y-81604472D01*
X84900816Y-81613210D01*
X84876632Y-81623227D01*
X84853005Y-81634497D01*
X84830000Y-81646987D01*
X84807680Y-81660665D01*
X84786107Y-81675492D01*
X84765340Y-81691427D01*
X84745435Y-81708428D01*
X84726447Y-81726447D01*
X84708428Y-81745435D01*
X84691427Y-81765340D01*
X84675492Y-81786107D01*
X84660665Y-81807680D01*
X84646987Y-81830000D01*
X84634497Y-81853005D01*
X84623227Y-81876632D01*
X84613210Y-81900816D01*
X84604472Y-81925492D01*
X84597037Y-81950590D01*
X84590926Y-81976044D01*
X84586156Y-82001783D01*
X84582739Y-82027736D01*
X84580685Y-82053832D01*
X84580000Y-82080000D01*
X84580685Y-82106168D01*
X84582739Y-82132264D01*
X84586156Y-82158217D01*
X84590926Y-82183956D01*
X84597037Y-82209410D01*
X84604472Y-82234508D01*
X84613210Y-82259184D01*
X84623227Y-82283368D01*
X84634497Y-82306995D01*
X84646987Y-82330000D01*
X84660665Y-82352320D01*
X84675492Y-82373893D01*
X84691427Y-82394660D01*
X84708428Y-82414565D01*
X84726447Y-82433553D01*
X84745435Y-82451572D01*
X84765340Y-82468573D01*
X84786107Y-82484508D01*
X84807680Y-82499335D01*
X84830000Y-82513013D01*
X84853005Y-82525503D01*
X84876632Y-82536773D01*
X84900816Y-82546790D01*
X84925492Y-82555528D01*
X84950590Y-82562963D01*
X84976044Y-82569074D01*
X85001783Y-82573844D01*
X85027736Y-82577261D01*
X85053832Y-82579315D01*
X85080000Y-82580000D01*
X86580000Y-82580000D01*
X86580000Y-81580000D01*
G36*
X86580000Y-83080000D02*
G01*
X85080000Y-83080000D01*
X85053832Y-83080685D01*
X85027736Y-83082739D01*
X85001783Y-83086156D01*
X84976044Y-83090926D01*
X84950590Y-83097037D01*
X84925492Y-83104472D01*
X84900816Y-83113210D01*
X84876632Y-83123227D01*
X84853005Y-83134497D01*
X84830000Y-83146987D01*
X84807680Y-83160665D01*
X84786107Y-83175492D01*
X84765340Y-83191427D01*
X84745435Y-83208428D01*
X84726447Y-83226447D01*
X84708428Y-83245435D01*
X84691427Y-83265340D01*
X84675492Y-83286107D01*
X84660665Y-83307680D01*
X84646987Y-83330000D01*
X84634497Y-83353005D01*
X84623227Y-83376632D01*
X84613210Y-83400816D01*
X84604472Y-83425492D01*
X84597037Y-83450590D01*
X84590926Y-83476044D01*
X84586156Y-83501783D01*
X84582739Y-83527736D01*
X84580685Y-83553832D01*
X84580000Y-83580000D01*
X84580685Y-83606168D01*
X84582739Y-83632264D01*
X84586156Y-83658217D01*
X84590926Y-83683956D01*
X84597037Y-83709410D01*
X84604472Y-83734508D01*
X84613210Y-83759184D01*
X84623227Y-83783368D01*
X84634497Y-83806995D01*
X84646987Y-83830000D01*
X84660665Y-83852320D01*
X84675492Y-83873893D01*
X84691427Y-83894660D01*
X84708428Y-83914565D01*
X84726447Y-83933553D01*
X84745435Y-83951572D01*
X84765340Y-83968573D01*
X84786107Y-83984508D01*
X84807680Y-83999335D01*
X84830000Y-84013013D01*
X84853005Y-84025503D01*
X84876632Y-84036773D01*
X84900816Y-84046790D01*
X84925492Y-84055528D01*
X84950590Y-84062963D01*
X84976044Y-84069074D01*
X85001783Y-84073844D01*
X85027736Y-84077261D01*
X85053832Y-84079315D01*
X85080000Y-84080000D01*
X86580000Y-84080000D01*
X86580000Y-83080000D01*
G37*
X86580000Y-83080000D02*
X85080000Y-83080000D01*
X85053832Y-83080685D01*
X85027736Y-83082739D01*
X85001783Y-83086156D01*
X84976044Y-83090926D01*
X84950590Y-83097037D01*
X84925492Y-83104472D01*
X84900816Y-83113210D01*
X84876632Y-83123227D01*
X84853005Y-83134497D01*
X84830000Y-83146987D01*
X84807680Y-83160665D01*
X84786107Y-83175492D01*
X84765340Y-83191427D01*
X84745435Y-83208428D01*
X84726447Y-83226447D01*
X84708428Y-83245435D01*
X84691427Y-83265340D01*
X84675492Y-83286107D01*
X84660665Y-83307680D01*
X84646987Y-83330000D01*
X84634497Y-83353005D01*
X84623227Y-83376632D01*
X84613210Y-83400816D01*
X84604472Y-83425492D01*
X84597037Y-83450590D01*
X84590926Y-83476044D01*
X84586156Y-83501783D01*
X84582739Y-83527736D01*
X84580685Y-83553832D01*
X84580000Y-83580000D01*
X84580685Y-83606168D01*
X84582739Y-83632264D01*
X84586156Y-83658217D01*
X84590926Y-83683956D01*
X84597037Y-83709410D01*
X84604472Y-83734508D01*
X84613210Y-83759184D01*
X84623227Y-83783368D01*
X84634497Y-83806995D01*
X84646987Y-83830000D01*
X84660665Y-83852320D01*
X84675492Y-83873893D01*
X84691427Y-83894660D01*
X84708428Y-83914565D01*
X84726447Y-83933553D01*
X84745435Y-83951572D01*
X84765340Y-83968573D01*
X84786107Y-83984508D01*
X84807680Y-83999335D01*
X84830000Y-84013013D01*
X84853005Y-84025503D01*
X84876632Y-84036773D01*
X84900816Y-84046790D01*
X84925492Y-84055528D01*
X84950590Y-84062963D01*
X84976044Y-84069074D01*
X85001783Y-84073844D01*
X85027736Y-84077261D01*
X85053832Y-84079315D01*
X85080000Y-84080000D01*
X86580000Y-84080000D01*
X86580000Y-83080000D01*
G36*
X86580000Y-84580000D02*
G01*
X85080000Y-84580000D01*
X85053832Y-84580685D01*
X85027736Y-84582739D01*
X85001783Y-84586156D01*
X84976044Y-84590926D01*
X84950590Y-84597037D01*
X84925492Y-84604472D01*
X84900816Y-84613210D01*
X84876632Y-84623227D01*
X84853005Y-84634497D01*
X84830000Y-84646987D01*
X84807680Y-84660665D01*
X84786107Y-84675492D01*
X84765340Y-84691427D01*
X84745435Y-84708428D01*
X84726447Y-84726447D01*
X84708428Y-84745435D01*
X84691427Y-84765340D01*
X84675492Y-84786107D01*
X84660665Y-84807680D01*
X84646987Y-84830000D01*
X84634497Y-84853005D01*
X84623227Y-84876632D01*
X84613210Y-84900816D01*
X84604472Y-84925492D01*
X84597037Y-84950590D01*
X84590926Y-84976044D01*
X84586156Y-85001783D01*
X84582739Y-85027736D01*
X84580685Y-85053832D01*
X84580000Y-85080000D01*
X84580685Y-85106168D01*
X84582739Y-85132264D01*
X84586156Y-85158217D01*
X84590926Y-85183956D01*
X84597037Y-85209410D01*
X84604472Y-85234508D01*
X84613210Y-85259184D01*
X84623227Y-85283368D01*
X84634497Y-85306995D01*
X84646987Y-85330000D01*
X84660665Y-85352320D01*
X84675492Y-85373893D01*
X84691427Y-85394660D01*
X84708428Y-85414565D01*
X84726447Y-85433553D01*
X84745435Y-85451572D01*
X84765340Y-85468573D01*
X84786107Y-85484508D01*
X84807680Y-85499335D01*
X84830000Y-85513013D01*
X84853005Y-85525503D01*
X84876632Y-85536773D01*
X84900816Y-85546790D01*
X84925492Y-85555528D01*
X84950590Y-85562963D01*
X84976044Y-85569074D01*
X85001783Y-85573844D01*
X85027736Y-85577261D01*
X85053832Y-85579315D01*
X85080000Y-85580000D01*
X86580000Y-85580000D01*
X86580000Y-84580000D01*
G37*
X86580000Y-84580000D02*
X85080000Y-84580000D01*
X85053832Y-84580685D01*
X85027736Y-84582739D01*
X85001783Y-84586156D01*
X84976044Y-84590926D01*
X84950590Y-84597037D01*
X84925492Y-84604472D01*
X84900816Y-84613210D01*
X84876632Y-84623227D01*
X84853005Y-84634497D01*
X84830000Y-84646987D01*
X84807680Y-84660665D01*
X84786107Y-84675492D01*
X84765340Y-84691427D01*
X84745435Y-84708428D01*
X84726447Y-84726447D01*
X84708428Y-84745435D01*
X84691427Y-84765340D01*
X84675492Y-84786107D01*
X84660665Y-84807680D01*
X84646987Y-84830000D01*
X84634497Y-84853005D01*
X84623227Y-84876632D01*
X84613210Y-84900816D01*
X84604472Y-84925492D01*
X84597037Y-84950590D01*
X84590926Y-84976044D01*
X84586156Y-85001783D01*
X84582739Y-85027736D01*
X84580685Y-85053832D01*
X84580000Y-85080000D01*
X84580685Y-85106168D01*
X84582739Y-85132264D01*
X84586156Y-85158217D01*
X84590926Y-85183956D01*
X84597037Y-85209410D01*
X84604472Y-85234508D01*
X84613210Y-85259184D01*
X84623227Y-85283368D01*
X84634497Y-85306995D01*
X84646987Y-85330000D01*
X84660665Y-85352320D01*
X84675492Y-85373893D01*
X84691427Y-85394660D01*
X84708428Y-85414565D01*
X84726447Y-85433553D01*
X84745435Y-85451572D01*
X84765340Y-85468573D01*
X84786107Y-85484508D01*
X84807680Y-85499335D01*
X84830000Y-85513013D01*
X84853005Y-85525503D01*
X84876632Y-85536773D01*
X84900816Y-85546790D01*
X84925492Y-85555528D01*
X84950590Y-85562963D01*
X84976044Y-85569074D01*
X85001783Y-85573844D01*
X85027736Y-85577261D01*
X85053832Y-85579315D01*
X85080000Y-85580000D01*
X86580000Y-85580000D01*
X86580000Y-84580000D01*
G36*
X87080000Y-85830000D02*
G01*
X87080000Y-87330000D01*
X87080685Y-87356168D01*
X87082739Y-87382264D01*
X87086156Y-87408217D01*
X87090926Y-87433956D01*
X87097037Y-87459410D01*
X87104472Y-87484508D01*
X87113210Y-87509184D01*
X87123227Y-87533368D01*
X87134497Y-87556995D01*
X87146987Y-87580000D01*
X87160665Y-87602320D01*
X87175492Y-87623893D01*
X87191427Y-87644660D01*
X87208428Y-87664565D01*
X87226447Y-87683553D01*
X87245435Y-87701572D01*
X87265340Y-87718573D01*
X87286107Y-87734508D01*
X87307680Y-87749335D01*
X87330000Y-87763013D01*
X87353005Y-87775503D01*
X87376632Y-87786773D01*
X87400816Y-87796790D01*
X87425492Y-87805528D01*
X87450590Y-87812963D01*
X87476044Y-87819074D01*
X87501783Y-87823844D01*
X87527736Y-87827261D01*
X87553832Y-87829315D01*
X87580000Y-87830000D01*
X87606168Y-87829315D01*
X87632264Y-87827261D01*
X87658217Y-87823844D01*
X87683956Y-87819074D01*
X87709410Y-87812963D01*
X87734508Y-87805528D01*
X87759184Y-87796790D01*
X87783368Y-87786773D01*
X87806995Y-87775503D01*
X87830000Y-87763013D01*
X87852320Y-87749335D01*
X87873893Y-87734508D01*
X87894660Y-87718573D01*
X87914565Y-87701572D01*
X87933553Y-87683553D01*
X87951572Y-87664565D01*
X87968573Y-87644660D01*
X87984508Y-87623893D01*
X87999335Y-87602320D01*
X88013013Y-87580000D01*
X88025503Y-87556995D01*
X88036773Y-87533368D01*
X88046790Y-87509184D01*
X88055528Y-87484508D01*
X88062963Y-87459410D01*
X88069074Y-87433956D01*
X88073844Y-87408217D01*
X88077261Y-87382264D01*
X88079315Y-87356168D01*
X88080000Y-87330000D01*
X88080000Y-85830000D01*
X87080000Y-85830000D01*
G37*
X87080000Y-85830000D02*
X87080000Y-87330000D01*
X87080685Y-87356168D01*
X87082739Y-87382264D01*
X87086156Y-87408217D01*
X87090926Y-87433956D01*
X87097037Y-87459410D01*
X87104472Y-87484508D01*
X87113210Y-87509184D01*
X87123227Y-87533368D01*
X87134497Y-87556995D01*
X87146987Y-87580000D01*
X87160665Y-87602320D01*
X87175492Y-87623893D01*
X87191427Y-87644660D01*
X87208428Y-87664565D01*
X87226447Y-87683553D01*
X87245435Y-87701572D01*
X87265340Y-87718573D01*
X87286107Y-87734508D01*
X87307680Y-87749335D01*
X87330000Y-87763013D01*
X87353005Y-87775503D01*
X87376632Y-87786773D01*
X87400816Y-87796790D01*
X87425492Y-87805528D01*
X87450590Y-87812963D01*
X87476044Y-87819074D01*
X87501783Y-87823844D01*
X87527736Y-87827261D01*
X87553832Y-87829315D01*
X87580000Y-87830000D01*
X87606168Y-87829315D01*
X87632264Y-87827261D01*
X87658217Y-87823844D01*
X87683956Y-87819074D01*
X87709410Y-87812963D01*
X87734508Y-87805528D01*
X87759184Y-87796790D01*
X87783368Y-87786773D01*
X87806995Y-87775503D01*
X87830000Y-87763013D01*
X87852320Y-87749335D01*
X87873893Y-87734508D01*
X87894660Y-87718573D01*
X87914565Y-87701572D01*
X87933553Y-87683553D01*
X87951572Y-87664565D01*
X87968573Y-87644660D01*
X87984508Y-87623893D01*
X87999335Y-87602320D01*
X88013013Y-87580000D01*
X88025503Y-87556995D01*
X88036773Y-87533368D01*
X88046790Y-87509184D01*
X88055528Y-87484508D01*
X88062963Y-87459410D01*
X88069074Y-87433956D01*
X88073844Y-87408217D01*
X88077261Y-87382264D01*
X88079315Y-87356168D01*
X88080000Y-87330000D01*
X88080000Y-85830000D01*
X87080000Y-85830000D01*
G36*
X88580000Y-85830000D02*
G01*
X88580000Y-87330000D01*
X88580685Y-87356168D01*
X88582739Y-87382264D01*
X88586156Y-87408217D01*
X88590926Y-87433956D01*
X88597037Y-87459410D01*
X88604472Y-87484508D01*
X88613210Y-87509184D01*
X88623227Y-87533368D01*
X88634497Y-87556995D01*
X88646987Y-87580000D01*
X88660665Y-87602320D01*
X88675492Y-87623893D01*
X88691427Y-87644660D01*
X88708428Y-87664565D01*
X88726447Y-87683553D01*
X88745435Y-87701572D01*
X88765340Y-87718573D01*
X88786107Y-87734508D01*
X88807680Y-87749335D01*
X88830000Y-87763013D01*
X88853005Y-87775503D01*
X88876632Y-87786773D01*
X88900816Y-87796790D01*
X88925492Y-87805528D01*
X88950590Y-87812963D01*
X88976044Y-87819074D01*
X89001783Y-87823844D01*
X89027736Y-87827261D01*
X89053832Y-87829315D01*
X89080000Y-87830000D01*
X89106168Y-87829315D01*
X89132264Y-87827261D01*
X89158217Y-87823844D01*
X89183956Y-87819074D01*
X89209410Y-87812963D01*
X89234508Y-87805528D01*
X89259184Y-87796790D01*
X89283368Y-87786773D01*
X89306995Y-87775503D01*
X89330000Y-87763013D01*
X89352320Y-87749335D01*
X89373893Y-87734508D01*
X89394660Y-87718573D01*
X89414565Y-87701572D01*
X89433553Y-87683553D01*
X89451572Y-87664565D01*
X89468573Y-87644660D01*
X89484508Y-87623893D01*
X89499335Y-87602320D01*
X89513013Y-87580000D01*
X89525503Y-87556995D01*
X89536773Y-87533368D01*
X89546790Y-87509184D01*
X89555528Y-87484508D01*
X89562963Y-87459410D01*
X89569074Y-87433956D01*
X89573844Y-87408217D01*
X89577261Y-87382264D01*
X89579315Y-87356168D01*
X89580000Y-87330000D01*
X89580000Y-85830000D01*
X88580000Y-85830000D01*
G37*
X88580000Y-85830000D02*
X88580000Y-87330000D01*
X88580685Y-87356168D01*
X88582739Y-87382264D01*
X88586156Y-87408217D01*
X88590926Y-87433956D01*
X88597037Y-87459410D01*
X88604472Y-87484508D01*
X88613210Y-87509184D01*
X88623227Y-87533368D01*
X88634497Y-87556995D01*
X88646987Y-87580000D01*
X88660665Y-87602320D01*
X88675492Y-87623893D01*
X88691427Y-87644660D01*
X88708428Y-87664565D01*
X88726447Y-87683553D01*
X88745435Y-87701572D01*
X88765340Y-87718573D01*
X88786107Y-87734508D01*
X88807680Y-87749335D01*
X88830000Y-87763013D01*
X88853005Y-87775503D01*
X88876632Y-87786773D01*
X88900816Y-87796790D01*
X88925492Y-87805528D01*
X88950590Y-87812963D01*
X88976044Y-87819074D01*
X89001783Y-87823844D01*
X89027736Y-87827261D01*
X89053832Y-87829315D01*
X89080000Y-87830000D01*
X89106168Y-87829315D01*
X89132264Y-87827261D01*
X89158217Y-87823844D01*
X89183956Y-87819074D01*
X89209410Y-87812963D01*
X89234508Y-87805528D01*
X89259184Y-87796790D01*
X89283368Y-87786773D01*
X89306995Y-87775503D01*
X89330000Y-87763013D01*
X89352320Y-87749335D01*
X89373893Y-87734508D01*
X89394660Y-87718573D01*
X89414565Y-87701572D01*
X89433553Y-87683553D01*
X89451572Y-87664565D01*
X89468573Y-87644660D01*
X89484508Y-87623893D01*
X89499335Y-87602320D01*
X89513013Y-87580000D01*
X89525503Y-87556995D01*
X89536773Y-87533368D01*
X89546790Y-87509184D01*
X89555528Y-87484508D01*
X89562963Y-87459410D01*
X89569074Y-87433956D01*
X89573844Y-87408217D01*
X89577261Y-87382264D01*
X89579315Y-87356168D01*
X89580000Y-87330000D01*
X89580000Y-85830000D01*
X88580000Y-85830000D01*
G36*
X90080000Y-85830000D02*
G01*
X90080000Y-87330000D01*
X90080685Y-87356168D01*
X90082739Y-87382264D01*
X90086156Y-87408217D01*
X90090926Y-87433956D01*
X90097037Y-87459410D01*
X90104472Y-87484508D01*
X90113210Y-87509184D01*
X90123227Y-87533368D01*
X90134497Y-87556995D01*
X90146987Y-87580000D01*
X90160665Y-87602320D01*
X90175492Y-87623893D01*
X90191427Y-87644660D01*
X90208428Y-87664565D01*
X90226447Y-87683553D01*
X90245435Y-87701572D01*
X90265340Y-87718573D01*
X90286107Y-87734508D01*
X90307680Y-87749335D01*
X90330000Y-87763013D01*
X90353005Y-87775503D01*
X90376632Y-87786773D01*
X90400816Y-87796790D01*
X90425492Y-87805528D01*
X90450590Y-87812963D01*
X90476044Y-87819074D01*
X90501783Y-87823844D01*
X90527736Y-87827261D01*
X90553832Y-87829315D01*
X90580000Y-87830000D01*
X90606168Y-87829315D01*
X90632264Y-87827261D01*
X90658217Y-87823844D01*
X90683956Y-87819074D01*
X90709410Y-87812963D01*
X90734508Y-87805528D01*
X90759184Y-87796790D01*
X90783368Y-87786773D01*
X90806995Y-87775503D01*
X90830000Y-87763013D01*
X90852320Y-87749335D01*
X90873893Y-87734508D01*
X90894660Y-87718573D01*
X90914565Y-87701572D01*
X90933553Y-87683553D01*
X90951572Y-87664565D01*
X90968573Y-87644660D01*
X90984508Y-87623893D01*
X90999335Y-87602320D01*
X91013013Y-87580000D01*
X91025503Y-87556995D01*
X91036773Y-87533368D01*
X91046790Y-87509184D01*
X91055528Y-87484508D01*
X91062963Y-87459410D01*
X91069074Y-87433956D01*
X91073844Y-87408217D01*
X91077261Y-87382264D01*
X91079315Y-87356168D01*
X91080000Y-87330000D01*
X91080000Y-85830000D01*
X90080000Y-85830000D01*
G37*
X90080000Y-85830000D02*
X90080000Y-87330000D01*
X90080685Y-87356168D01*
X90082739Y-87382264D01*
X90086156Y-87408217D01*
X90090926Y-87433956D01*
X90097037Y-87459410D01*
X90104472Y-87484508D01*
X90113210Y-87509184D01*
X90123227Y-87533368D01*
X90134497Y-87556995D01*
X90146987Y-87580000D01*
X90160665Y-87602320D01*
X90175492Y-87623893D01*
X90191427Y-87644660D01*
X90208428Y-87664565D01*
X90226447Y-87683553D01*
X90245435Y-87701572D01*
X90265340Y-87718573D01*
X90286107Y-87734508D01*
X90307680Y-87749335D01*
X90330000Y-87763013D01*
X90353005Y-87775503D01*
X90376632Y-87786773D01*
X90400816Y-87796790D01*
X90425492Y-87805528D01*
X90450590Y-87812963D01*
X90476044Y-87819074D01*
X90501783Y-87823844D01*
X90527736Y-87827261D01*
X90553832Y-87829315D01*
X90580000Y-87830000D01*
X90606168Y-87829315D01*
X90632264Y-87827261D01*
X90658217Y-87823844D01*
X90683956Y-87819074D01*
X90709410Y-87812963D01*
X90734508Y-87805528D01*
X90759184Y-87796790D01*
X90783368Y-87786773D01*
X90806995Y-87775503D01*
X90830000Y-87763013D01*
X90852320Y-87749335D01*
X90873893Y-87734508D01*
X90894660Y-87718573D01*
X90914565Y-87701572D01*
X90933553Y-87683553D01*
X90951572Y-87664565D01*
X90968573Y-87644660D01*
X90984508Y-87623893D01*
X90999335Y-87602320D01*
X91013013Y-87580000D01*
X91025503Y-87556995D01*
X91036773Y-87533368D01*
X91046790Y-87509184D01*
X91055528Y-87484508D01*
X91062963Y-87459410D01*
X91069074Y-87433956D01*
X91073844Y-87408217D01*
X91077261Y-87382264D01*
X91079315Y-87356168D01*
X91080000Y-87330000D01*
X91080000Y-85830000D01*
X90080000Y-85830000D01*
G36*
X91580000Y-85830000D02*
G01*
X91580000Y-87330000D01*
X91580685Y-87356168D01*
X91582739Y-87382264D01*
X91586156Y-87408217D01*
X91590926Y-87433956D01*
X91597037Y-87459410D01*
X91604472Y-87484508D01*
X91613210Y-87509184D01*
X91623227Y-87533368D01*
X91634497Y-87556995D01*
X91646987Y-87580000D01*
X91660665Y-87602320D01*
X91675492Y-87623893D01*
X91691427Y-87644660D01*
X91708428Y-87664565D01*
X91726447Y-87683553D01*
X91745435Y-87701572D01*
X91765340Y-87718573D01*
X91786107Y-87734508D01*
X91807680Y-87749335D01*
X91830000Y-87763013D01*
X91853005Y-87775503D01*
X91876632Y-87786773D01*
X91900816Y-87796790D01*
X91925492Y-87805528D01*
X91950590Y-87812963D01*
X91976044Y-87819074D01*
X92001783Y-87823844D01*
X92027736Y-87827261D01*
X92053832Y-87829315D01*
X92080000Y-87830000D01*
X92106168Y-87829315D01*
X92132264Y-87827261D01*
X92158217Y-87823844D01*
X92183956Y-87819074D01*
X92209410Y-87812963D01*
X92234508Y-87805528D01*
X92259184Y-87796790D01*
X92283368Y-87786773D01*
X92306995Y-87775503D01*
X92330000Y-87763013D01*
X92352320Y-87749335D01*
X92373893Y-87734508D01*
X92394660Y-87718573D01*
X92414565Y-87701572D01*
X92433553Y-87683553D01*
X92451572Y-87664565D01*
X92468573Y-87644660D01*
X92484508Y-87623893D01*
X92499335Y-87602320D01*
X92513013Y-87580000D01*
X92525503Y-87556995D01*
X92536773Y-87533368D01*
X92546790Y-87509184D01*
X92555528Y-87484508D01*
X92562963Y-87459410D01*
X92569074Y-87433956D01*
X92573844Y-87408217D01*
X92577261Y-87382264D01*
X92579315Y-87356168D01*
X92580000Y-87330000D01*
X92580000Y-85830000D01*
X91580000Y-85830000D01*
G37*
X91580000Y-85830000D02*
X91580000Y-87330000D01*
X91580685Y-87356168D01*
X91582739Y-87382264D01*
X91586156Y-87408217D01*
X91590926Y-87433956D01*
X91597037Y-87459410D01*
X91604472Y-87484508D01*
X91613210Y-87509184D01*
X91623227Y-87533368D01*
X91634497Y-87556995D01*
X91646987Y-87580000D01*
X91660665Y-87602320D01*
X91675492Y-87623893D01*
X91691427Y-87644660D01*
X91708428Y-87664565D01*
X91726447Y-87683553D01*
X91745435Y-87701572D01*
X91765340Y-87718573D01*
X91786107Y-87734508D01*
X91807680Y-87749335D01*
X91830000Y-87763013D01*
X91853005Y-87775503D01*
X91876632Y-87786773D01*
X91900816Y-87796790D01*
X91925492Y-87805528D01*
X91950590Y-87812963D01*
X91976044Y-87819074D01*
X92001783Y-87823844D01*
X92027736Y-87827261D01*
X92053832Y-87829315D01*
X92080000Y-87830000D01*
X92106168Y-87829315D01*
X92132264Y-87827261D01*
X92158217Y-87823844D01*
X92183956Y-87819074D01*
X92209410Y-87812963D01*
X92234508Y-87805528D01*
X92259184Y-87796790D01*
X92283368Y-87786773D01*
X92306995Y-87775503D01*
X92330000Y-87763013D01*
X92352320Y-87749335D01*
X92373893Y-87734508D01*
X92394660Y-87718573D01*
X92414565Y-87701572D01*
X92433553Y-87683553D01*
X92451572Y-87664565D01*
X92468573Y-87644660D01*
X92484508Y-87623893D01*
X92499335Y-87602320D01*
X92513013Y-87580000D01*
X92525503Y-87556995D01*
X92536773Y-87533368D01*
X92546790Y-87509184D01*
X92555528Y-87484508D01*
X92562963Y-87459410D01*
X92569074Y-87433956D01*
X92573844Y-87408217D01*
X92577261Y-87382264D01*
X92579315Y-87356168D01*
X92580000Y-87330000D01*
X92580000Y-85830000D01*
X91580000Y-85830000D01*
G36*
X93080000Y-85830000D02*
G01*
X93080000Y-87330000D01*
X93080685Y-87356168D01*
X93082739Y-87382264D01*
X93086156Y-87408217D01*
X93090926Y-87433956D01*
X93097037Y-87459410D01*
X93104472Y-87484508D01*
X93113210Y-87509184D01*
X93123227Y-87533368D01*
X93134497Y-87556995D01*
X93146987Y-87580000D01*
X93160665Y-87602320D01*
X93175492Y-87623893D01*
X93191427Y-87644660D01*
X93208428Y-87664565D01*
X93226447Y-87683553D01*
X93245435Y-87701572D01*
X93265340Y-87718573D01*
X93286107Y-87734508D01*
X93307680Y-87749335D01*
X93330000Y-87763013D01*
X93353005Y-87775503D01*
X93376632Y-87786773D01*
X93400816Y-87796790D01*
X93425492Y-87805528D01*
X93450590Y-87812963D01*
X93476044Y-87819074D01*
X93501783Y-87823844D01*
X93527736Y-87827261D01*
X93553832Y-87829315D01*
X93580000Y-87830000D01*
X93606168Y-87829315D01*
X93632264Y-87827261D01*
X93658217Y-87823844D01*
X93683956Y-87819074D01*
X93709410Y-87812963D01*
X93734508Y-87805528D01*
X93759184Y-87796790D01*
X93783368Y-87786773D01*
X93806995Y-87775503D01*
X93830000Y-87763013D01*
X93852320Y-87749335D01*
X93873893Y-87734508D01*
X93894660Y-87718573D01*
X93914565Y-87701572D01*
X93933553Y-87683553D01*
X93951572Y-87664565D01*
X93968573Y-87644660D01*
X93984508Y-87623893D01*
X93999335Y-87602320D01*
X94013013Y-87580000D01*
X94025503Y-87556995D01*
X94036773Y-87533368D01*
X94046790Y-87509184D01*
X94055528Y-87484508D01*
X94062963Y-87459410D01*
X94069074Y-87433956D01*
X94073844Y-87408217D01*
X94077261Y-87382264D01*
X94079315Y-87356168D01*
X94080000Y-87330000D01*
X94080000Y-85830000D01*
X93080000Y-85830000D01*
G37*
X93080000Y-85830000D02*
X93080000Y-87330000D01*
X93080685Y-87356168D01*
X93082739Y-87382264D01*
X93086156Y-87408217D01*
X93090926Y-87433956D01*
X93097037Y-87459410D01*
X93104472Y-87484508D01*
X93113210Y-87509184D01*
X93123227Y-87533368D01*
X93134497Y-87556995D01*
X93146987Y-87580000D01*
X93160665Y-87602320D01*
X93175492Y-87623893D01*
X93191427Y-87644660D01*
X93208428Y-87664565D01*
X93226447Y-87683553D01*
X93245435Y-87701572D01*
X93265340Y-87718573D01*
X93286107Y-87734508D01*
X93307680Y-87749335D01*
X93330000Y-87763013D01*
X93353005Y-87775503D01*
X93376632Y-87786773D01*
X93400816Y-87796790D01*
X93425492Y-87805528D01*
X93450590Y-87812963D01*
X93476044Y-87819074D01*
X93501783Y-87823844D01*
X93527736Y-87827261D01*
X93553832Y-87829315D01*
X93580000Y-87830000D01*
X93606168Y-87829315D01*
X93632264Y-87827261D01*
X93658217Y-87823844D01*
X93683956Y-87819074D01*
X93709410Y-87812963D01*
X93734508Y-87805528D01*
X93759184Y-87796790D01*
X93783368Y-87786773D01*
X93806995Y-87775503D01*
X93830000Y-87763013D01*
X93852320Y-87749335D01*
X93873893Y-87734508D01*
X93894660Y-87718573D01*
X93914565Y-87701572D01*
X93933553Y-87683553D01*
X93951572Y-87664565D01*
X93968573Y-87644660D01*
X93984508Y-87623893D01*
X93999335Y-87602320D01*
X94013013Y-87580000D01*
X94025503Y-87556995D01*
X94036773Y-87533368D01*
X94046790Y-87509184D01*
X94055528Y-87484508D01*
X94062963Y-87459410D01*
X94069074Y-87433956D01*
X94073844Y-87408217D01*
X94077261Y-87382264D01*
X94079315Y-87356168D01*
X94080000Y-87330000D01*
X94080000Y-85830000D01*
X93080000Y-85830000D01*
G36*
X94580000Y-85830000D02*
G01*
X94580000Y-87330000D01*
X94580685Y-87356168D01*
X94582739Y-87382264D01*
X94586156Y-87408217D01*
X94590926Y-87433956D01*
X94597037Y-87459410D01*
X94604472Y-87484508D01*
X94613210Y-87509184D01*
X94623227Y-87533368D01*
X94634497Y-87556995D01*
X94646987Y-87580000D01*
X94660665Y-87602320D01*
X94675492Y-87623893D01*
X94691427Y-87644660D01*
X94708428Y-87664565D01*
X94726447Y-87683553D01*
X94745435Y-87701572D01*
X94765340Y-87718573D01*
X94786107Y-87734508D01*
X94807680Y-87749335D01*
X94830000Y-87763013D01*
X94853005Y-87775503D01*
X94876632Y-87786773D01*
X94900816Y-87796790D01*
X94925492Y-87805528D01*
X94950590Y-87812963D01*
X94976044Y-87819074D01*
X95001783Y-87823844D01*
X95027736Y-87827261D01*
X95053832Y-87829315D01*
X95080000Y-87830000D01*
X95106168Y-87829315D01*
X95132264Y-87827261D01*
X95158217Y-87823844D01*
X95183956Y-87819074D01*
X95209410Y-87812963D01*
X95234508Y-87805528D01*
X95259184Y-87796790D01*
X95283368Y-87786773D01*
X95306995Y-87775503D01*
X95330000Y-87763013D01*
X95352320Y-87749335D01*
X95373893Y-87734508D01*
X95394660Y-87718573D01*
X95414565Y-87701572D01*
X95433553Y-87683553D01*
X95451572Y-87664565D01*
X95468573Y-87644660D01*
X95484508Y-87623893D01*
X95499335Y-87602320D01*
X95513013Y-87580000D01*
X95525503Y-87556995D01*
X95536773Y-87533368D01*
X95546790Y-87509184D01*
X95555528Y-87484508D01*
X95562963Y-87459410D01*
X95569074Y-87433956D01*
X95573844Y-87408217D01*
X95577261Y-87382264D01*
X95579315Y-87356168D01*
X95580000Y-87330000D01*
X95580000Y-85830000D01*
X94580000Y-85830000D01*
G37*
X94580000Y-85830000D02*
X94580000Y-87330000D01*
X94580685Y-87356168D01*
X94582739Y-87382264D01*
X94586156Y-87408217D01*
X94590926Y-87433956D01*
X94597037Y-87459410D01*
X94604472Y-87484508D01*
X94613210Y-87509184D01*
X94623227Y-87533368D01*
X94634497Y-87556995D01*
X94646987Y-87580000D01*
X94660665Y-87602320D01*
X94675492Y-87623893D01*
X94691427Y-87644660D01*
X94708428Y-87664565D01*
X94726447Y-87683553D01*
X94745435Y-87701572D01*
X94765340Y-87718573D01*
X94786107Y-87734508D01*
X94807680Y-87749335D01*
X94830000Y-87763013D01*
X94853005Y-87775503D01*
X94876632Y-87786773D01*
X94900816Y-87796790D01*
X94925492Y-87805528D01*
X94950590Y-87812963D01*
X94976044Y-87819074D01*
X95001783Y-87823844D01*
X95027736Y-87827261D01*
X95053832Y-87829315D01*
X95080000Y-87830000D01*
X95106168Y-87829315D01*
X95132264Y-87827261D01*
X95158217Y-87823844D01*
X95183956Y-87819074D01*
X95209410Y-87812963D01*
X95234508Y-87805528D01*
X95259184Y-87796790D01*
X95283368Y-87786773D01*
X95306995Y-87775503D01*
X95330000Y-87763013D01*
X95352320Y-87749335D01*
X95373893Y-87734508D01*
X95394660Y-87718573D01*
X95414565Y-87701572D01*
X95433553Y-87683553D01*
X95451572Y-87664565D01*
X95468573Y-87644660D01*
X95484508Y-87623893D01*
X95499335Y-87602320D01*
X95513013Y-87580000D01*
X95525503Y-87556995D01*
X95536773Y-87533368D01*
X95546790Y-87509184D01*
X95555528Y-87484508D01*
X95562963Y-87459410D01*
X95569074Y-87433956D01*
X95573844Y-87408217D01*
X95577261Y-87382264D01*
X95579315Y-87356168D01*
X95580000Y-87330000D01*
X95580000Y-85830000D01*
X94580000Y-85830000D01*
G36*
X96080000Y-85580000D02*
G01*
X97580000Y-85580000D01*
X97606168Y-85579315D01*
X97632264Y-85577261D01*
X97658217Y-85573844D01*
X97683956Y-85569074D01*
X97709410Y-85562963D01*
X97734508Y-85555528D01*
X97759184Y-85546790D01*
X97783368Y-85536773D01*
X97806995Y-85525503D01*
X97830000Y-85513013D01*
X97852320Y-85499335D01*
X97873893Y-85484508D01*
X97894660Y-85468573D01*
X97914565Y-85451572D01*
X97933553Y-85433553D01*
X97951572Y-85414565D01*
X97968573Y-85394660D01*
X97984508Y-85373893D01*
X97999335Y-85352320D01*
X98013013Y-85330000D01*
X98025503Y-85306995D01*
X98036773Y-85283368D01*
X98046790Y-85259184D01*
X98055528Y-85234508D01*
X98062963Y-85209410D01*
X98069074Y-85183956D01*
X98073844Y-85158217D01*
X98077261Y-85132264D01*
X98079315Y-85106168D01*
X98080000Y-85080000D01*
X98079315Y-85053832D01*
X98077261Y-85027736D01*
X98073844Y-85001783D01*
X98069074Y-84976044D01*
X98062963Y-84950590D01*
X98055528Y-84925492D01*
X98046790Y-84900816D01*
X98036773Y-84876632D01*
X98025503Y-84853005D01*
X98013013Y-84830000D01*
X97999335Y-84807680D01*
X97984508Y-84786107D01*
X97968573Y-84765340D01*
X97951572Y-84745435D01*
X97933553Y-84726447D01*
X97914565Y-84708428D01*
X97894660Y-84691427D01*
X97873893Y-84675492D01*
X97852320Y-84660665D01*
X97830000Y-84646987D01*
X97806995Y-84634497D01*
X97783368Y-84623227D01*
X97759184Y-84613210D01*
X97734508Y-84604472D01*
X97709410Y-84597037D01*
X97683956Y-84590926D01*
X97658217Y-84586156D01*
X97632264Y-84582739D01*
X97606168Y-84580685D01*
X97580000Y-84580000D01*
X96080000Y-84580000D01*
X96080000Y-85580000D01*
G37*
X96080000Y-85580000D02*
X97580000Y-85580000D01*
X97606168Y-85579315D01*
X97632264Y-85577261D01*
X97658217Y-85573844D01*
X97683956Y-85569074D01*
X97709410Y-85562963D01*
X97734508Y-85555528D01*
X97759184Y-85546790D01*
X97783368Y-85536773D01*
X97806995Y-85525503D01*
X97830000Y-85513013D01*
X97852320Y-85499335D01*
X97873893Y-85484508D01*
X97894660Y-85468573D01*
X97914565Y-85451572D01*
X97933553Y-85433553D01*
X97951572Y-85414565D01*
X97968573Y-85394660D01*
X97984508Y-85373893D01*
X97999335Y-85352320D01*
X98013013Y-85330000D01*
X98025503Y-85306995D01*
X98036773Y-85283368D01*
X98046790Y-85259184D01*
X98055528Y-85234508D01*
X98062963Y-85209410D01*
X98069074Y-85183956D01*
X98073844Y-85158217D01*
X98077261Y-85132264D01*
X98079315Y-85106168D01*
X98080000Y-85080000D01*
X98079315Y-85053832D01*
X98077261Y-85027736D01*
X98073844Y-85001783D01*
X98069074Y-84976044D01*
X98062963Y-84950590D01*
X98055528Y-84925492D01*
X98046790Y-84900816D01*
X98036773Y-84876632D01*
X98025503Y-84853005D01*
X98013013Y-84830000D01*
X97999335Y-84807680D01*
X97984508Y-84786107D01*
X97968573Y-84765340D01*
X97951572Y-84745435D01*
X97933553Y-84726447D01*
X97914565Y-84708428D01*
X97894660Y-84691427D01*
X97873893Y-84675492D01*
X97852320Y-84660665D01*
X97830000Y-84646987D01*
X97806995Y-84634497D01*
X97783368Y-84623227D01*
X97759184Y-84613210D01*
X97734508Y-84604472D01*
X97709410Y-84597037D01*
X97683956Y-84590926D01*
X97658217Y-84586156D01*
X97632264Y-84582739D01*
X97606168Y-84580685D01*
X97580000Y-84580000D01*
X96080000Y-84580000D01*
X96080000Y-85580000D01*
G36*
X96080000Y-84080000D02*
G01*
X97580000Y-84080000D01*
X97606168Y-84079315D01*
X97632264Y-84077261D01*
X97658217Y-84073844D01*
X97683956Y-84069074D01*
X97709410Y-84062963D01*
X97734508Y-84055528D01*
X97759184Y-84046790D01*
X97783368Y-84036773D01*
X97806995Y-84025503D01*
X97830000Y-84013013D01*
X97852320Y-83999335D01*
X97873893Y-83984508D01*
X97894660Y-83968573D01*
X97914565Y-83951572D01*
X97933553Y-83933553D01*
X97951572Y-83914565D01*
X97968573Y-83894660D01*
X97984508Y-83873893D01*
X97999335Y-83852320D01*
X98013013Y-83830000D01*
X98025503Y-83806995D01*
X98036773Y-83783368D01*
X98046790Y-83759184D01*
X98055528Y-83734508D01*
X98062963Y-83709410D01*
X98069074Y-83683956D01*
X98073844Y-83658217D01*
X98077261Y-83632264D01*
X98079315Y-83606168D01*
X98080000Y-83580000D01*
X98079315Y-83553832D01*
X98077261Y-83527736D01*
X98073844Y-83501783D01*
X98069074Y-83476044D01*
X98062963Y-83450590D01*
X98055528Y-83425492D01*
X98046790Y-83400816D01*
X98036773Y-83376632D01*
X98025503Y-83353005D01*
X98013013Y-83330000D01*
X97999335Y-83307680D01*
X97984508Y-83286107D01*
X97968573Y-83265340D01*
X97951572Y-83245435D01*
X97933553Y-83226447D01*
X97914565Y-83208428D01*
X97894660Y-83191427D01*
X97873893Y-83175492D01*
X97852320Y-83160665D01*
X97830000Y-83146987D01*
X97806995Y-83134497D01*
X97783368Y-83123227D01*
X97759184Y-83113210D01*
X97734508Y-83104472D01*
X97709410Y-83097037D01*
X97683956Y-83090926D01*
X97658217Y-83086156D01*
X97632264Y-83082739D01*
X97606168Y-83080685D01*
X97580000Y-83080000D01*
X96080000Y-83080000D01*
X96080000Y-84080000D01*
G37*
X96080000Y-84080000D02*
X97580000Y-84080000D01*
X97606168Y-84079315D01*
X97632264Y-84077261D01*
X97658217Y-84073844D01*
X97683956Y-84069074D01*
X97709410Y-84062963D01*
X97734508Y-84055528D01*
X97759184Y-84046790D01*
X97783368Y-84036773D01*
X97806995Y-84025503D01*
X97830000Y-84013013D01*
X97852320Y-83999335D01*
X97873893Y-83984508D01*
X97894660Y-83968573D01*
X97914565Y-83951572D01*
X97933553Y-83933553D01*
X97951572Y-83914565D01*
X97968573Y-83894660D01*
X97984508Y-83873893D01*
X97999335Y-83852320D01*
X98013013Y-83830000D01*
X98025503Y-83806995D01*
X98036773Y-83783368D01*
X98046790Y-83759184D01*
X98055528Y-83734508D01*
X98062963Y-83709410D01*
X98069074Y-83683956D01*
X98073844Y-83658217D01*
X98077261Y-83632264D01*
X98079315Y-83606168D01*
X98080000Y-83580000D01*
X98079315Y-83553832D01*
X98077261Y-83527736D01*
X98073844Y-83501783D01*
X98069074Y-83476044D01*
X98062963Y-83450590D01*
X98055528Y-83425492D01*
X98046790Y-83400816D01*
X98036773Y-83376632D01*
X98025503Y-83353005D01*
X98013013Y-83330000D01*
X97999335Y-83307680D01*
X97984508Y-83286107D01*
X97968573Y-83265340D01*
X97951572Y-83245435D01*
X97933553Y-83226447D01*
X97914565Y-83208428D01*
X97894660Y-83191427D01*
X97873893Y-83175492D01*
X97852320Y-83160665D01*
X97830000Y-83146987D01*
X97806995Y-83134497D01*
X97783368Y-83123227D01*
X97759184Y-83113210D01*
X97734508Y-83104472D01*
X97709410Y-83097037D01*
X97683956Y-83090926D01*
X97658217Y-83086156D01*
X97632264Y-83082739D01*
X97606168Y-83080685D01*
X97580000Y-83080000D01*
X96080000Y-83080000D01*
X96080000Y-84080000D01*
G36*
X96080000Y-82580000D02*
G01*
X97580000Y-82580000D01*
X97606168Y-82579315D01*
X97632264Y-82577261D01*
X97658217Y-82573844D01*
X97683956Y-82569074D01*
X97709410Y-82562963D01*
X97734508Y-82555528D01*
X97759184Y-82546790D01*
X97783368Y-82536773D01*
X97806995Y-82525503D01*
X97830000Y-82513013D01*
X97852320Y-82499335D01*
X97873893Y-82484508D01*
X97894660Y-82468573D01*
X97914565Y-82451572D01*
X97933553Y-82433553D01*
X97951572Y-82414565D01*
X97968573Y-82394660D01*
X97984508Y-82373893D01*
X97999335Y-82352320D01*
X98013013Y-82330000D01*
X98025503Y-82306995D01*
X98036773Y-82283368D01*
X98046790Y-82259184D01*
X98055528Y-82234508D01*
X98062963Y-82209410D01*
X98069074Y-82183956D01*
X98073844Y-82158217D01*
X98077261Y-82132264D01*
X98079315Y-82106168D01*
X98080000Y-82080000D01*
X98079315Y-82053832D01*
X98077261Y-82027736D01*
X98073844Y-82001783D01*
X98069074Y-81976044D01*
X98062963Y-81950590D01*
X98055528Y-81925492D01*
X98046790Y-81900816D01*
X98036773Y-81876632D01*
X98025503Y-81853005D01*
X98013013Y-81830000D01*
X97999335Y-81807680D01*
X97984508Y-81786107D01*
X97968573Y-81765340D01*
X97951572Y-81745435D01*
X97933553Y-81726447D01*
X97914565Y-81708428D01*
X97894660Y-81691427D01*
X97873893Y-81675492D01*
X97852320Y-81660665D01*
X97830000Y-81646987D01*
X97806995Y-81634497D01*
X97783368Y-81623227D01*
X97759184Y-81613210D01*
X97734508Y-81604472D01*
X97709410Y-81597037D01*
X97683956Y-81590926D01*
X97658217Y-81586156D01*
X97632264Y-81582739D01*
X97606168Y-81580685D01*
X97580000Y-81580000D01*
X96080000Y-81580000D01*
X96080000Y-82580000D01*
G37*
X96080000Y-82580000D02*
X97580000Y-82580000D01*
X97606168Y-82579315D01*
X97632264Y-82577261D01*
X97658217Y-82573844D01*
X97683956Y-82569074D01*
X97709410Y-82562963D01*
X97734508Y-82555528D01*
X97759184Y-82546790D01*
X97783368Y-82536773D01*
X97806995Y-82525503D01*
X97830000Y-82513013D01*
X97852320Y-82499335D01*
X97873893Y-82484508D01*
X97894660Y-82468573D01*
X97914565Y-82451572D01*
X97933553Y-82433553D01*
X97951572Y-82414565D01*
X97968573Y-82394660D01*
X97984508Y-82373893D01*
X97999335Y-82352320D01*
X98013013Y-82330000D01*
X98025503Y-82306995D01*
X98036773Y-82283368D01*
X98046790Y-82259184D01*
X98055528Y-82234508D01*
X98062963Y-82209410D01*
X98069074Y-82183956D01*
X98073844Y-82158217D01*
X98077261Y-82132264D01*
X98079315Y-82106168D01*
X98080000Y-82080000D01*
X98079315Y-82053832D01*
X98077261Y-82027736D01*
X98073844Y-82001783D01*
X98069074Y-81976044D01*
X98062963Y-81950590D01*
X98055528Y-81925492D01*
X98046790Y-81900816D01*
X98036773Y-81876632D01*
X98025503Y-81853005D01*
X98013013Y-81830000D01*
X97999335Y-81807680D01*
X97984508Y-81786107D01*
X97968573Y-81765340D01*
X97951572Y-81745435D01*
X97933553Y-81726447D01*
X97914565Y-81708428D01*
X97894660Y-81691427D01*
X97873893Y-81675492D01*
X97852320Y-81660665D01*
X97830000Y-81646987D01*
X97806995Y-81634497D01*
X97783368Y-81623227D01*
X97759184Y-81613210D01*
X97734508Y-81604472D01*
X97709410Y-81597037D01*
X97683956Y-81590926D01*
X97658217Y-81586156D01*
X97632264Y-81582739D01*
X97606168Y-81580685D01*
X97580000Y-81580000D01*
X96080000Y-81580000D01*
X96080000Y-82580000D01*
G36*
X96080000Y-81080000D02*
G01*
X97580000Y-81080000D01*
X97606168Y-81079315D01*
X97632264Y-81077261D01*
X97658217Y-81073844D01*
X97683956Y-81069074D01*
X97709410Y-81062963D01*
X97734508Y-81055528D01*
X97759184Y-81046790D01*
X97783368Y-81036773D01*
X97806995Y-81025503D01*
X97830000Y-81013013D01*
X97852320Y-80999335D01*
X97873893Y-80984508D01*
X97894660Y-80968573D01*
X97914565Y-80951572D01*
X97933553Y-80933553D01*
X97951572Y-80914565D01*
X97968573Y-80894660D01*
X97984508Y-80873893D01*
X97999335Y-80852320D01*
X98013013Y-80830000D01*
X98025503Y-80806995D01*
X98036773Y-80783368D01*
X98046790Y-80759184D01*
X98055528Y-80734508D01*
X98062963Y-80709410D01*
X98069074Y-80683956D01*
X98073844Y-80658217D01*
X98077261Y-80632264D01*
X98079315Y-80606168D01*
X98080000Y-80580000D01*
X98079315Y-80553832D01*
X98077261Y-80527736D01*
X98073844Y-80501783D01*
X98069074Y-80476044D01*
X98062963Y-80450590D01*
X98055528Y-80425492D01*
X98046790Y-80400816D01*
X98036773Y-80376632D01*
X98025503Y-80353005D01*
X98013013Y-80330000D01*
X97999335Y-80307680D01*
X97984508Y-80286107D01*
X97968573Y-80265340D01*
X97951572Y-80245435D01*
X97933553Y-80226447D01*
X97914565Y-80208428D01*
X97894660Y-80191427D01*
X97873893Y-80175492D01*
X97852320Y-80160665D01*
X97830000Y-80146987D01*
X97806995Y-80134497D01*
X97783368Y-80123227D01*
X97759184Y-80113210D01*
X97734508Y-80104472D01*
X97709410Y-80097037D01*
X97683956Y-80090926D01*
X97658217Y-80086156D01*
X97632264Y-80082739D01*
X97606168Y-80080685D01*
X97580000Y-80080000D01*
X96080000Y-80080000D01*
X96080000Y-81080000D01*
G37*
X96080000Y-81080000D02*
X97580000Y-81080000D01*
X97606168Y-81079315D01*
X97632264Y-81077261D01*
X97658217Y-81073844D01*
X97683956Y-81069074D01*
X97709410Y-81062963D01*
X97734508Y-81055528D01*
X97759184Y-81046790D01*
X97783368Y-81036773D01*
X97806995Y-81025503D01*
X97830000Y-81013013D01*
X97852320Y-80999335D01*
X97873893Y-80984508D01*
X97894660Y-80968573D01*
X97914565Y-80951572D01*
X97933553Y-80933553D01*
X97951572Y-80914565D01*
X97968573Y-80894660D01*
X97984508Y-80873893D01*
X97999335Y-80852320D01*
X98013013Y-80830000D01*
X98025503Y-80806995D01*
X98036773Y-80783368D01*
X98046790Y-80759184D01*
X98055528Y-80734508D01*
X98062963Y-80709410D01*
X98069074Y-80683956D01*
X98073844Y-80658217D01*
X98077261Y-80632264D01*
X98079315Y-80606168D01*
X98080000Y-80580000D01*
X98079315Y-80553832D01*
X98077261Y-80527736D01*
X98073844Y-80501783D01*
X98069074Y-80476044D01*
X98062963Y-80450590D01*
X98055528Y-80425492D01*
X98046790Y-80400816D01*
X98036773Y-80376632D01*
X98025503Y-80353005D01*
X98013013Y-80330000D01*
X97999335Y-80307680D01*
X97984508Y-80286107D01*
X97968573Y-80265340D01*
X97951572Y-80245435D01*
X97933553Y-80226447D01*
X97914565Y-80208428D01*
X97894660Y-80191427D01*
X97873893Y-80175492D01*
X97852320Y-80160665D01*
X97830000Y-80146987D01*
X97806995Y-80134497D01*
X97783368Y-80123227D01*
X97759184Y-80113210D01*
X97734508Y-80104472D01*
X97709410Y-80097037D01*
X97683956Y-80090926D01*
X97658217Y-80086156D01*
X97632264Y-80082739D01*
X97606168Y-80080685D01*
X97580000Y-80080000D01*
X96080000Y-80080000D01*
X96080000Y-81080000D01*
G36*
X96080000Y-79580000D02*
G01*
X97580000Y-79580000D01*
X97606168Y-79579315D01*
X97632264Y-79577261D01*
X97658217Y-79573844D01*
X97683956Y-79569074D01*
X97709410Y-79562963D01*
X97734508Y-79555528D01*
X97759184Y-79546790D01*
X97783368Y-79536773D01*
X97806995Y-79525503D01*
X97830000Y-79513013D01*
X97852320Y-79499335D01*
X97873893Y-79484508D01*
X97894660Y-79468573D01*
X97914565Y-79451572D01*
X97933553Y-79433553D01*
X97951572Y-79414565D01*
X97968573Y-79394660D01*
X97984508Y-79373893D01*
X97999335Y-79352320D01*
X98013013Y-79330000D01*
X98025503Y-79306995D01*
X98036773Y-79283368D01*
X98046790Y-79259184D01*
X98055528Y-79234508D01*
X98062963Y-79209410D01*
X98069074Y-79183956D01*
X98073844Y-79158217D01*
X98077261Y-79132264D01*
X98079315Y-79106168D01*
X98080000Y-79080000D01*
X98079315Y-79053832D01*
X98077261Y-79027736D01*
X98073844Y-79001783D01*
X98069074Y-78976044D01*
X98062963Y-78950590D01*
X98055528Y-78925492D01*
X98046790Y-78900816D01*
X98036773Y-78876632D01*
X98025503Y-78853005D01*
X98013013Y-78830000D01*
X97999335Y-78807680D01*
X97984508Y-78786107D01*
X97968573Y-78765340D01*
X97951572Y-78745435D01*
X97933553Y-78726447D01*
X97914565Y-78708428D01*
X97894660Y-78691427D01*
X97873893Y-78675492D01*
X97852320Y-78660665D01*
X97830000Y-78646987D01*
X97806995Y-78634497D01*
X97783368Y-78623227D01*
X97759184Y-78613210D01*
X97734508Y-78604472D01*
X97709410Y-78597037D01*
X97683956Y-78590926D01*
X97658217Y-78586156D01*
X97632264Y-78582739D01*
X97606168Y-78580685D01*
X97580000Y-78580000D01*
X96080000Y-78580000D01*
X96080000Y-79580000D01*
G37*
X96080000Y-79580000D02*
X97580000Y-79580000D01*
X97606168Y-79579315D01*
X97632264Y-79577261D01*
X97658217Y-79573844D01*
X97683956Y-79569074D01*
X97709410Y-79562963D01*
X97734508Y-79555528D01*
X97759184Y-79546790D01*
X97783368Y-79536773D01*
X97806995Y-79525503D01*
X97830000Y-79513013D01*
X97852320Y-79499335D01*
X97873893Y-79484508D01*
X97894660Y-79468573D01*
X97914565Y-79451572D01*
X97933553Y-79433553D01*
X97951572Y-79414565D01*
X97968573Y-79394660D01*
X97984508Y-79373893D01*
X97999335Y-79352320D01*
X98013013Y-79330000D01*
X98025503Y-79306995D01*
X98036773Y-79283368D01*
X98046790Y-79259184D01*
X98055528Y-79234508D01*
X98062963Y-79209410D01*
X98069074Y-79183956D01*
X98073844Y-79158217D01*
X98077261Y-79132264D01*
X98079315Y-79106168D01*
X98080000Y-79080000D01*
X98079315Y-79053832D01*
X98077261Y-79027736D01*
X98073844Y-79001783D01*
X98069074Y-78976044D01*
X98062963Y-78950590D01*
X98055528Y-78925492D01*
X98046790Y-78900816D01*
X98036773Y-78876632D01*
X98025503Y-78853005D01*
X98013013Y-78830000D01*
X97999335Y-78807680D01*
X97984508Y-78786107D01*
X97968573Y-78765340D01*
X97951572Y-78745435D01*
X97933553Y-78726447D01*
X97914565Y-78708428D01*
X97894660Y-78691427D01*
X97873893Y-78675492D01*
X97852320Y-78660665D01*
X97830000Y-78646987D01*
X97806995Y-78634497D01*
X97783368Y-78623227D01*
X97759184Y-78613210D01*
X97734508Y-78604472D01*
X97709410Y-78597037D01*
X97683956Y-78590926D01*
X97658217Y-78586156D01*
X97632264Y-78582739D01*
X97606168Y-78580685D01*
X97580000Y-78580000D01*
X96080000Y-78580000D01*
X96080000Y-79580000D01*
%TD*%
D11*
%TO.P,U1,J1*%
%TO.N,GND*%
X85580000Y-79080000D03*
%TO.P,U1,J2*%
X85580000Y-80580000D03*
%TO.P,U1,J3*%
X85580000Y-82080000D03*
%TO.P,U1,J4*%
X85580000Y-83580000D03*
%TO.P,U1,J5*%
%TO.N,/J5_P0_6*%
X85580000Y-85080000D03*
%TO.P,U1,J6*%
%TO.N,GND*%
X87580000Y-86830000D03*
%TO.P,U1,J7*%
%TO.N,VDD*%
X89080000Y-86830000D03*
%TO.P,U1,J8*%
%TO.N,/J8_P0_11*%
X90580000Y-86830000D03*
%TO.P,U1,J9*%
%TO.N,/J9_P010_SWDIO*%
X92080000Y-86830000D03*
%TO.P,U1,J10*%
%TO.N,/J10_P02_SWDCLK*%
X93580000Y-86830000D03*
%TO.P,U1,J11*%
%TO.N,GND*%
X95080000Y-86830000D03*
%TO.P,U1,J12*%
%TO.N,/J12_P00_RST*%
X97080000Y-85080000D03*
%TO.P,U1,J13*%
%TO.N,/J16_P0_7*%
X97080000Y-83580000D03*
%TO.P,U1,J14*%
%TO.N,/J14_P05_RXTX*%
X97080000Y-82080000D03*
%TO.P,U1,J15*%
%TO.N,/J15_P0_9*%
X97080000Y-80580000D03*
%TO.P,U1,J16*%
%TO.N,/J16_P0_8*%
X97080000Y-79080000D03*
%TD*%
D12*
%TO.P,J1,7*%
%TO.N,/J8_P0_11*%
X78300000Y-95580000D03*
%TO.P,J1,6*%
%TO.N,VDD*%
X78300000Y-93040000D03*
%TO.P,J1,5*%
X78300000Y-90500000D03*
%TO.P,J1,4*%
%TO.N,/J5_P0_6*%
X78300000Y-87960000D03*
%TO.P,J1,3*%
%TO.N,GND*%
X78300000Y-85420000D03*
%TO.P,J1,2*%
X78300000Y-82880000D03*
D13*
%TO.P,J1,1*%
X78300000Y-80340000D03*
%TD*%
%TO.P,J2,1*%
%TO.N,/J16_P0_8*%
X103690000Y-80390000D03*
D12*
%TO.P,J2,2*%
%TO.N,/J15_P0_9*%
X103690000Y-82930000D03*
%TO.P,J2,3*%
%TO.N,/J14_P05_RXTX*%
X103690000Y-85470000D03*
%TO.P,J2,4*%
%TO.N,/J16_P0_7*%
X103690000Y-88010000D03*
%TO.P,J2,5*%
%TO.N,/J12_P00_RST*%
X103690000Y-90550000D03*
%TO.P,J2,6*%
%TO.N,/J10_P02_SWDCLK*%
X103690000Y-93090000D03*
%TO.P,J2,7*%
%TO.N,/J9_P010_SWDIO*%
X103690000Y-95630000D03*
%TD*%
D14*
%TO.N,GND*%
X83420000Y-79070000D03*
X83470000Y-83550000D03*
X87610000Y-88800000D03*
X95050000Y-88690000D03*
%TD*%
D15*
%TO.N,/J5_P0_6*%
X85580000Y-85080000D02*
X83160000Y-85080000D01*
X80280000Y-87960000D02*
X78300000Y-87960000D01*
X83160000Y-85080000D02*
X80280000Y-87960000D01*
%TO.N,VDD*%
X89080000Y-86830000D02*
X89080000Y-89300000D01*
X87880000Y-90500000D02*
X78300000Y-90500000D01*
X89080000Y-89300000D02*
X87880000Y-90500000D01*
%TO.N,/J8_P0_11*%
X89700000Y-95580000D02*
X78300000Y-95580000D01*
X90580000Y-94700000D02*
X89700000Y-95580000D01*
X90580000Y-86830000D02*
X90580000Y-94700000D01*
%TO.N,/J9_P010_SWDIO*%
X92080000Y-86830000D02*
X92080000Y-94770000D01*
X92940000Y-95630000D02*
X103690000Y-95630000D01*
X92080000Y-94770000D02*
X92940000Y-95630000D01*
%TO.N,GND*%
X78690000Y-80580000D02*
X78450000Y-80340000D01*
X83430000Y-79080000D02*
X83420000Y-79070000D01*
X85580000Y-79080000D02*
X83430000Y-79080000D01*
X83500000Y-83580000D02*
X83470000Y-83550000D01*
X85580000Y-83580000D02*
X83500000Y-83580000D01*
X85580000Y-80580000D02*
X85580000Y-83580000D01*
X87580000Y-86830000D02*
X87610000Y-86830000D01*
X87610000Y-86830000D02*
X87610000Y-88800000D01*
X95080000Y-88660000D02*
X95050000Y-88690000D01*
X95080000Y-86830000D02*
X95080000Y-88660000D01*
%TO.N,/J10_P02_SWDCLK*%
X93580000Y-86830000D02*
X93590000Y-86830000D01*
X93590000Y-86830000D02*
X93600000Y-86840000D01*
X93600000Y-86840000D02*
X93600000Y-92320000D01*
X94370000Y-93090000D02*
X103690000Y-93090000D01*
X93600000Y-92320000D02*
X94370000Y-93090000D01*
%TO.N,/J12_P00_RST*%
X97080000Y-85080000D02*
X98790000Y-85080000D01*
X98790000Y-85080000D02*
X100790000Y-87080000D01*
X100790000Y-87080000D02*
X100790000Y-89630000D01*
X101710000Y-90550000D02*
X103690000Y-90550000D01*
X100790000Y-89630000D02*
X101710000Y-90550000D01*
%TO.N,/J16_P0_7*%
X99260000Y-83580000D02*
X103690000Y-88010000D01*
X97080000Y-83580000D02*
X99260000Y-83580000D01*
%TO.N,/J14_P05_RXTX*%
X100300000Y-82080000D02*
X103690000Y-85470000D01*
X97080000Y-82080000D02*
X100300000Y-82080000D01*
%TO.N,/J16_P0_8*%
X102380000Y-79080000D02*
X103690000Y-80390000D01*
X97080000Y-79080000D02*
X102380000Y-79080000D01*
%TO.N,/J15_P0_9*%
X101340000Y-80580000D02*
X103690000Y-82930000D01*
X97080000Y-80580000D02*
X101340000Y-80580000D01*
%TD*%
D16*
%TO.N,VDD*%
X83823000Y-78116652D02*
X83721898Y-78074774D01*
X83521939Y-78035000D01*
X83318061Y-78035000D01*
X83118102Y-78074774D01*
X82929744Y-78152795D01*
X82760226Y-78266063D01*
X82616063Y-78410226D01*
X82502795Y-78579744D01*
X82424774Y-78768102D01*
X82385000Y-78968061D01*
X82385000Y-79171939D01*
X82424774Y-79371898D01*
X82502795Y-79560256D01*
X82616063Y-79729774D01*
X82760226Y-79873937D01*
X82929744Y-79987205D01*
X83118102Y-80065226D01*
X83318061Y-80105000D01*
X83521939Y-80105000D01*
X83721898Y-80065226D01*
X83910256Y-79987205D01*
X84079774Y-79873937D01*
X84113711Y-79840000D01*
X84213046Y-79840000D01*
X84204774Y-79849686D01*
X84197723Y-79859794D01*
X84189169Y-79868682D01*
X84183680Y-79875734D01*
X84167745Y-79896501D01*
X84161236Y-79906958D01*
X84153167Y-79916273D01*
X84148055Y-79923602D01*
X84133228Y-79945175D01*
X84127272Y-79955963D01*
X84119701Y-79965689D01*
X84114979Y-79973276D01*
X84101300Y-79995596D01*
X84095912Y-80006691D01*
X84088855Y-80016808D01*
X84084537Y-80024631D01*
X84072047Y-80047637D01*
X84067259Y-80058973D01*
X84060750Y-80069429D01*
X84056847Y-80077468D01*
X84045577Y-80101095D01*
X84041379Y-80112692D01*
X84035418Y-80123490D01*
X84031941Y-80131722D01*
X84021924Y-80155906D01*
X84018342Y-80167696D01*
X84012959Y-80178782D01*
X84009918Y-80187185D01*
X84001180Y-80211861D01*
X83998223Y-80223810D01*
X83993429Y-80235158D01*
X83990832Y-80243708D01*
X83983397Y-80268806D01*
X83981065Y-80280912D01*
X83976867Y-80292510D01*
X83974720Y-80301184D01*
X83968609Y-80326638D01*
X83966914Y-80338851D01*
X83963330Y-80350649D01*
X83961641Y-80359424D01*
X83956871Y-80385163D01*
X83955819Y-80397431D01*
X83952860Y-80409389D01*
X83951632Y-80418241D01*
X83948215Y-80444194D01*
X83947806Y-80456507D01*
X83945475Y-80468613D01*
X83944712Y-80477517D01*
X83942658Y-80503613D01*
X83942895Y-80515940D01*
X83941200Y-80528153D01*
X83940904Y-80537084D01*
X83940219Y-80563252D01*
X83941100Y-80575536D01*
X83940047Y-80587813D01*
X83940219Y-80596748D01*
X83940904Y-80622916D01*
X83942428Y-80635150D01*
X83942019Y-80647473D01*
X83942658Y-80656387D01*
X83944712Y-80682483D01*
X83946873Y-80694616D01*
X83947110Y-80706938D01*
X83948215Y-80715806D01*
X83951632Y-80741759D01*
X83954424Y-80753755D01*
X83955304Y-80766040D01*
X83956871Y-80774837D01*
X83961641Y-80800576D01*
X83965060Y-80812422D01*
X83966584Y-80824658D01*
X83968609Y-80833362D01*
X83974720Y-80858816D01*
X83978755Y-80870469D01*
X83980918Y-80882609D01*
X83983397Y-80891194D01*
X83990832Y-80916292D01*
X83995463Y-80927696D01*
X83998255Y-80939695D01*
X84001180Y-80948139D01*
X84009918Y-80972815D01*
X84015144Y-80983970D01*
X84018562Y-80995815D01*
X84021924Y-81004094D01*
X84031941Y-81028278D01*
X84037749Y-81039156D01*
X84041786Y-81050813D01*
X84045577Y-81058905D01*
X84056847Y-81082532D01*
X84063206Y-81093074D01*
X84067838Y-81104481D01*
X84072047Y-81112363D01*
X84084537Y-81135369D01*
X84091450Y-81145581D01*
X84096684Y-81156753D01*
X84101300Y-81164404D01*
X84114979Y-81186724D01*
X84122410Y-81196549D01*
X84128217Y-81207425D01*
X84133228Y-81214825D01*
X84148055Y-81236398D01*
X84155986Y-81245816D01*
X84162354Y-81256372D01*
X84167745Y-81263499D01*
X84183680Y-81284266D01*
X84192102Y-81293267D01*
X84199017Y-81303479D01*
X84204774Y-81310314D01*
X84221587Y-81330000D01*
X84204774Y-81349686D01*
X84197723Y-81359794D01*
X84189169Y-81368682D01*
X84183680Y-81375734D01*
X84167745Y-81396501D01*
X84161236Y-81406958D01*
X84153167Y-81416273D01*
X84148055Y-81423602D01*
X84133228Y-81445175D01*
X84127272Y-81455963D01*
X84119701Y-81465689D01*
X84114979Y-81473276D01*
X84101300Y-81495596D01*
X84095912Y-81506691D01*
X84088855Y-81516808D01*
X84084537Y-81524631D01*
X84072047Y-81547637D01*
X84067259Y-81558973D01*
X84060750Y-81569429D01*
X84056847Y-81577468D01*
X84045577Y-81601095D01*
X84041379Y-81612692D01*
X84035418Y-81623490D01*
X84031941Y-81631722D01*
X84021924Y-81655906D01*
X84018342Y-81667696D01*
X84012959Y-81678782D01*
X84009918Y-81687185D01*
X84001180Y-81711861D01*
X83998223Y-81723810D01*
X83993429Y-81735158D01*
X83990832Y-81743708D01*
X83983397Y-81768806D01*
X83981065Y-81780912D01*
X83976867Y-81792510D01*
X83974720Y-81801184D01*
X83968609Y-81826638D01*
X83966914Y-81838851D01*
X83963330Y-81850649D01*
X83961641Y-81859424D01*
X83956871Y-81885163D01*
X83955819Y-81897431D01*
X83952860Y-81909389D01*
X83951632Y-81918241D01*
X83948215Y-81944194D01*
X83947806Y-81956507D01*
X83945475Y-81968613D01*
X83944712Y-81977517D01*
X83942658Y-82003613D01*
X83942895Y-82015940D01*
X83941200Y-82028153D01*
X83940904Y-82037084D01*
X83940219Y-82063252D01*
X83941100Y-82075536D01*
X83940047Y-82087813D01*
X83940219Y-82096748D01*
X83940904Y-82122916D01*
X83942428Y-82135150D01*
X83942019Y-82147473D01*
X83942658Y-82156387D01*
X83944712Y-82182483D01*
X83946873Y-82194616D01*
X83947110Y-82206938D01*
X83948215Y-82215806D01*
X83951632Y-82241759D01*
X83954424Y-82253755D01*
X83955304Y-82266040D01*
X83956871Y-82274837D01*
X83961641Y-82300576D01*
X83965060Y-82312422D01*
X83966584Y-82324658D01*
X83968609Y-82333362D01*
X83974720Y-82358816D01*
X83978755Y-82370469D01*
X83980918Y-82382609D01*
X83983397Y-82391194D01*
X83990832Y-82416292D01*
X83995463Y-82427696D01*
X83998255Y-82439695D01*
X84001180Y-82448139D01*
X84009918Y-82472815D01*
X84015144Y-82483970D01*
X84018562Y-82495815D01*
X84021924Y-82504094D01*
X84031941Y-82528278D01*
X84037749Y-82539156D01*
X84041786Y-82550813D01*
X84045577Y-82558905D01*
X84056847Y-82582532D01*
X84063206Y-82593074D01*
X84067838Y-82604481D01*
X84072047Y-82612363D01*
X84084537Y-82635369D01*
X84091450Y-82645581D01*
X84096684Y-82656753D01*
X84101300Y-82664404D01*
X84114979Y-82686724D01*
X84122410Y-82696549D01*
X84128217Y-82707425D01*
X84133228Y-82714825D01*
X84148055Y-82736398D01*
X84155986Y-82745816D01*
X84162354Y-82756372D01*
X84167745Y-82763499D01*
X84183680Y-82784266D01*
X84192102Y-82793267D01*
X84199017Y-82803479D01*
X84204774Y-82810314D01*
X84213046Y-82820000D01*
X84203711Y-82820000D01*
X84129774Y-82746063D01*
X83960256Y-82632795D01*
X83771898Y-82554774D01*
X83571939Y-82515000D01*
X83368061Y-82515000D01*
X83168102Y-82554774D01*
X82979744Y-82632795D01*
X82810226Y-82746063D01*
X82666063Y-82890226D01*
X82552795Y-83059744D01*
X82474774Y-83248102D01*
X82435000Y-83448061D01*
X82435000Y-83651939D01*
X82474774Y-83851898D01*
X82552795Y-84040256D01*
X82666063Y-84209774D01*
X82810226Y-84353937D01*
X82852852Y-84382419D01*
X82735723Y-84445026D01*
X82657656Y-84509095D01*
X82619999Y-84539999D01*
X82596201Y-84568997D01*
X79965199Y-87200000D01*
X79578178Y-87200000D01*
X79453475Y-87013368D01*
X79246632Y-86806525D01*
X79072240Y-86690000D01*
X79246632Y-86573475D01*
X79453475Y-86366632D01*
X79615990Y-86123411D01*
X79727932Y-85853158D01*
X79785000Y-85566260D01*
X79785000Y-85273740D01*
X79727932Y-84986842D01*
X79615990Y-84716589D01*
X79453475Y-84473368D01*
X79246632Y-84266525D01*
X79072240Y-84150000D01*
X79246632Y-84033475D01*
X79453475Y-83826632D01*
X79615990Y-83583411D01*
X79727932Y-83313158D01*
X79785000Y-83026260D01*
X79785000Y-82733740D01*
X79727932Y-82446842D01*
X79615990Y-82176589D01*
X79453475Y-81933368D01*
X79321620Y-81801513D01*
X79394180Y-81779502D01*
X79504494Y-81720537D01*
X79601185Y-81641185D01*
X79680537Y-81544494D01*
X79739502Y-81434180D01*
X79775812Y-81314482D01*
X79788072Y-81190000D01*
X79788072Y-79490000D01*
X79775812Y-79365518D01*
X79739502Y-79245820D01*
X79680537Y-79135506D01*
X79601185Y-79038815D01*
X79504494Y-78959463D01*
X79394180Y-78900498D01*
X79274482Y-78864188D01*
X79150000Y-78851928D01*
X77450000Y-78851928D01*
X77325518Y-78864188D01*
X77205820Y-78900498D01*
X77095506Y-78959463D01*
X76998815Y-79038815D01*
X76919463Y-79135506D01*
X76860498Y-79245820D01*
X76824188Y-79365518D01*
X76811928Y-79490000D01*
X76811928Y-81190000D01*
X76824188Y-81314482D01*
X76860498Y-81434180D01*
X76919463Y-81544494D01*
X76998815Y-81641185D01*
X77095506Y-81720537D01*
X77205820Y-81779502D01*
X77278380Y-81801513D01*
X77146525Y-81933368D01*
X76984010Y-82176589D01*
X76872068Y-82446842D01*
X76815000Y-82733740D01*
X76815000Y-83026260D01*
X76872068Y-83313158D01*
X76984010Y-83583411D01*
X77146525Y-83826632D01*
X77353368Y-84033475D01*
X77527760Y-84150000D01*
X77353368Y-84266525D01*
X77146525Y-84473368D01*
X76984010Y-84716589D01*
X76872068Y-84986842D01*
X76815000Y-85273740D01*
X76815000Y-85566260D01*
X76872068Y-85853158D01*
X76984010Y-86123411D01*
X77146525Y-86366632D01*
X77353368Y-86573475D01*
X77527760Y-86690000D01*
X77353368Y-86806525D01*
X77146525Y-87013368D01*
X76984010Y-87256589D01*
X76872068Y-87526842D01*
X76815000Y-87813740D01*
X76815000Y-88106260D01*
X76872068Y-88393158D01*
X76984010Y-88663411D01*
X77146525Y-88906632D01*
X77353368Y-89113475D01*
X77535534Y-89235195D01*
X77418645Y-89304822D01*
X77202412Y-89499731D01*
X77028359Y-89733080D01*
X76903175Y-89995901D01*
X76858524Y-90143110D01*
X76979845Y-90373000D01*
X78173000Y-90373000D01*
X78173000Y-90353000D01*
X78427000Y-90353000D01*
X78427000Y-90373000D01*
X79620155Y-90373000D01*
X79741476Y-90143110D01*
X79696825Y-89995901D01*
X79571641Y-89733080D01*
X79397588Y-89499731D01*
X79181355Y-89304822D01*
X79064466Y-89235195D01*
X79246632Y-89113475D01*
X79453475Y-88906632D01*
X79578178Y-88720000D01*
X80242678Y-88720000D01*
X80280000Y-88723676D01*
X80317322Y-88720000D01*
X80317333Y-88720000D01*
X80428986Y-88709003D01*
X80572247Y-88665546D01*
X80704276Y-88594974D01*
X80820001Y-88500001D01*
X80843804Y-88470997D01*
X83474802Y-85840000D01*
X84231588Y-85840000D01*
X84238083Y-85848588D01*
X84244189Y-85855113D01*
X84262208Y-85874101D01*
X84271522Y-85882169D01*
X84279460Y-85891596D01*
X84285899Y-85897792D01*
X84304887Y-85915811D01*
X84314607Y-85923378D01*
X84323026Y-85932375D01*
X84329781Y-85938225D01*
X84349686Y-85955226D01*
X84359794Y-85962277D01*
X84368682Y-85970831D01*
X84375734Y-85976320D01*
X84396501Y-85992255D01*
X84406958Y-85998764D01*
X84416273Y-86006833D01*
X84423602Y-86011945D01*
X84445175Y-86026772D01*
X84455959Y-86032725D01*
X84465689Y-86040300D01*
X84473276Y-86045022D01*
X84495596Y-86058700D01*
X84506691Y-86064088D01*
X84516808Y-86071145D01*
X84524632Y-86075463D01*
X84547637Y-86087953D01*
X84558973Y-86092741D01*
X84569429Y-86099250D01*
X84577468Y-86103153D01*
X84601095Y-86114423D01*
X84612692Y-86118621D01*
X84623490Y-86124582D01*
X84631722Y-86128059D01*
X84655905Y-86138076D01*
X84667697Y-86141658D01*
X84678782Y-86147041D01*
X84687185Y-86150082D01*
X84711860Y-86158820D01*
X84723811Y-86161777D01*
X84735158Y-86166571D01*
X84743708Y-86169168D01*
X84768806Y-86176603D01*
X84780912Y-86178935D01*
X84792510Y-86183133D01*
X84801184Y-86185280D01*
X84826638Y-86191390D01*
X84838845Y-86193084D01*
X84850649Y-86196670D01*
X84859424Y-86198359D01*
X84885162Y-86203129D01*
X84897432Y-86204181D01*
X84909389Y-86207140D01*
X84918241Y-86208368D01*
X84944194Y-86211785D01*
X84956508Y-86212194D01*
X84968614Y-86214525D01*
X84977517Y-86215288D01*
X85003614Y-86217342D01*
X85015940Y-86217105D01*
X85028153Y-86218800D01*
X85037084Y-86219096D01*
X85063252Y-86219781D01*
X85067164Y-86219501D01*
X85071064Y-86219938D01*
X85080000Y-86220000D01*
X86440000Y-86220000D01*
X86440000Y-87330000D01*
X86440382Y-87333901D01*
X86440047Y-87337813D01*
X86440219Y-87346748D01*
X86440904Y-87372916D01*
X86442428Y-87385150D01*
X86442019Y-87397473D01*
X86442658Y-87406387D01*
X86444712Y-87432483D01*
X86446873Y-87444616D01*
X86447110Y-87456938D01*
X86448215Y-87465806D01*
X86451632Y-87491759D01*
X86454424Y-87503755D01*
X86455304Y-87516040D01*
X86456871Y-87524837D01*
X86461641Y-87550576D01*
X86465060Y-87562422D01*
X86466584Y-87574658D01*
X86468609Y-87583362D01*
X86474720Y-87608816D01*
X86478755Y-87620469D01*
X86480918Y-87632609D01*
X86483397Y-87641194D01*
X86490832Y-87666292D01*
X86495463Y-87677696D01*
X86498255Y-87689695D01*
X86501180Y-87698139D01*
X86509918Y-87722815D01*
X86515144Y-87733970D01*
X86518562Y-87745815D01*
X86521924Y-87754094D01*
X86531941Y-87778278D01*
X86537749Y-87789156D01*
X86541786Y-87800813D01*
X86545577Y-87808905D01*
X86556847Y-87832532D01*
X86563206Y-87843074D01*
X86567838Y-87854481D01*
X86572047Y-87862363D01*
X86584537Y-87885369D01*
X86591450Y-87895581D01*
X86596684Y-87906753D01*
X86601300Y-87914404D01*
X86614979Y-87936724D01*
X86622410Y-87946549D01*
X86628217Y-87957425D01*
X86633228Y-87964825D01*
X86648055Y-87986398D01*
X86655986Y-87995816D01*
X86662354Y-88006372D01*
X86667745Y-88013499D01*
X86683680Y-88034266D01*
X86692102Y-88043267D01*
X86699017Y-88053479D01*
X86704774Y-88060314D01*
X86721774Y-88080219D01*
X86730652Y-88088762D01*
X86738083Y-88098588D01*
X86744189Y-88105113D01*
X86762208Y-88124101D01*
X86771522Y-88132169D01*
X86779460Y-88141596D01*
X86785899Y-88147792D01*
X86795145Y-88156566D01*
X86692795Y-88309744D01*
X86614774Y-88498102D01*
X86575000Y-88698061D01*
X86575000Y-88901939D01*
X86614774Y-89101898D01*
X86692795Y-89290256D01*
X86806063Y-89459774D01*
X86950226Y-89603937D01*
X87119744Y-89717205D01*
X87308102Y-89795226D01*
X87508061Y-89835000D01*
X87711939Y-89835000D01*
X87911898Y-89795226D01*
X88100256Y-89717205D01*
X88269774Y-89603937D01*
X88413937Y-89459774D01*
X88527205Y-89290256D01*
X88605226Y-89101898D01*
X88645000Y-88901939D01*
X88645000Y-88698061D01*
X88605226Y-88498102D01*
X88536352Y-88331826D01*
X88547637Y-88337953D01*
X88558973Y-88342741D01*
X88569429Y-88349250D01*
X88577468Y-88353153D01*
X88601095Y-88364423D01*
X88612692Y-88368621D01*
X88623490Y-88374582D01*
X88631722Y-88378059D01*
X88655905Y-88388076D01*
X88667697Y-88391658D01*
X88678782Y-88397041D01*
X88687185Y-88400082D01*
X88711860Y-88408820D01*
X88723811Y-88411777D01*
X88735158Y-88416571D01*
X88743708Y-88419168D01*
X88768806Y-88426603D01*
X88780912Y-88428935D01*
X88792510Y-88433133D01*
X88801184Y-88435280D01*
X88826638Y-88441390D01*
X88838845Y-88443084D01*
X88850649Y-88446670D01*
X88859424Y-88448359D01*
X88885162Y-88453129D01*
X88897432Y-88454181D01*
X88909389Y-88457140D01*
X88918241Y-88458368D01*
X88944194Y-88461785D01*
X88956508Y-88462194D01*
X88968614Y-88464525D01*
X88977517Y-88465288D01*
X89003614Y-88467342D01*
X89015940Y-88467105D01*
X89028153Y-88468800D01*
X89037084Y-88469096D01*
X89063252Y-88469781D01*
X89075536Y-88468900D01*
X89087813Y-88469953D01*
X89096748Y-88469781D01*
X89122916Y-88469096D01*
X89135150Y-88467572D01*
X89147473Y-88467981D01*
X89156387Y-88467342D01*
X89182483Y-88465288D01*
X89194616Y-88463127D01*
X89206938Y-88462890D01*
X89215806Y-88461785D01*
X89241759Y-88458368D01*
X89253755Y-88455576D01*
X89266040Y-88454696D01*
X89274837Y-88453129D01*
X89300576Y-88448359D01*
X89312422Y-88444940D01*
X89324658Y-88443416D01*
X89333362Y-88441391D01*
X89358816Y-88435280D01*
X89370469Y-88431245D01*
X89382609Y-88429082D01*
X89391194Y-88426603D01*
X89416292Y-88419168D01*
X89427696Y-88414537D01*
X89439695Y-88411745D01*
X89448139Y-88408820D01*
X89472815Y-88400082D01*
X89483970Y-88394856D01*
X89495815Y-88391438D01*
X89504094Y-88388076D01*
X89528278Y-88378059D01*
X89539156Y-88372251D01*
X89550813Y-88368214D01*
X89558905Y-88364423D01*
X89582532Y-88353153D01*
X89593074Y-88346794D01*
X89604481Y-88342162D01*
X89612363Y-88337953D01*
X89635369Y-88325463D01*
X89645581Y-88318550D01*
X89656753Y-88313316D01*
X89664404Y-88308700D01*
X89686724Y-88295021D01*
X89696549Y-88287590D01*
X89707425Y-88281783D01*
X89714825Y-88276772D01*
X89736398Y-88261945D01*
X89745818Y-88254013D01*
X89756372Y-88247646D01*
X89763499Y-88242255D01*
X89784266Y-88226320D01*
X89793267Y-88217898D01*
X89803479Y-88210983D01*
X89810314Y-88205226D01*
X89820000Y-88196953D01*
X89820001Y-94385197D01*
X89385199Y-94820000D01*
X79578178Y-94820000D01*
X79453475Y-94633368D01*
X79246632Y-94426525D01*
X79064466Y-94304805D01*
X79181355Y-94235178D01*
X79397588Y-94040269D01*
X79571641Y-93806920D01*
X79696825Y-93544099D01*
X79741476Y-93396890D01*
X79620155Y-93167000D01*
X78427000Y-93167000D01*
X78427000Y-93187000D01*
X78173000Y-93187000D01*
X78173000Y-93167000D01*
X76979845Y-93167000D01*
X76858524Y-93396890D01*
X76903175Y-93544099D01*
X77028359Y-93806920D01*
X77202412Y-94040269D01*
X77418645Y-94235178D01*
X77535534Y-94304805D01*
X77353368Y-94426525D01*
X77146525Y-94633368D01*
X76984010Y-94876589D01*
X76872068Y-95146842D01*
X76815000Y-95433740D01*
X76815000Y-95726260D01*
X76872068Y-96013158D01*
X76984010Y-96283411D01*
X77146525Y-96526632D01*
X77353368Y-96733475D01*
X77596589Y-96895990D01*
X77866842Y-97007932D01*
X78153740Y-97065000D01*
X78446260Y-97065000D01*
X78733158Y-97007932D01*
X79003411Y-96895990D01*
X79246632Y-96733475D01*
X79453475Y-96526632D01*
X79578178Y-96340000D01*
X89662678Y-96340000D01*
X89700000Y-96343676D01*
X89737322Y-96340000D01*
X89737333Y-96340000D01*
X89848986Y-96329003D01*
X89992247Y-96285546D01*
X90124276Y-96214974D01*
X90240001Y-96120001D01*
X90263803Y-96090998D01*
X91091003Y-95263799D01*
X91120001Y-95240001D01*
X91157527Y-95194276D01*
X91214974Y-95124277D01*
X91285546Y-94992247D01*
X91299870Y-94945026D01*
X91325304Y-94861179D01*
X91330998Y-94918986D01*
X91338897Y-94945026D01*
X91374454Y-95062246D01*
X91445026Y-95194276D01*
X91516201Y-95281002D01*
X91540000Y-95310001D01*
X91568998Y-95333799D01*
X92376201Y-96141003D01*
X92399999Y-96170001D01*
X92515724Y-96264974D01*
X92647753Y-96335546D01*
X92791014Y-96379003D01*
X92902667Y-96390000D01*
X92902675Y-96390000D01*
X92940000Y-96393676D01*
X92977325Y-96390000D01*
X102411822Y-96390000D01*
X102536525Y-96576632D01*
X102743368Y-96783475D01*
X102986589Y-96945990D01*
X103256842Y-97057932D01*
X103543740Y-97115000D01*
X103836260Y-97115000D01*
X104123158Y-97057932D01*
X104393411Y-96945990D01*
X104636632Y-96783475D01*
X104843475Y-96576632D01*
X105005990Y-96333411D01*
X105117932Y-96063158D01*
X105175000Y-95776260D01*
X105175000Y-95483740D01*
X105117932Y-95196842D01*
X105005990Y-94926589D01*
X104843475Y-94683368D01*
X104636632Y-94476525D01*
X104462240Y-94360000D01*
X104636632Y-94243475D01*
X104843475Y-94036632D01*
X105005990Y-93793411D01*
X105117932Y-93523158D01*
X105175000Y-93236260D01*
X105175000Y-92943740D01*
X105117932Y-92656842D01*
X105005990Y-92386589D01*
X104843475Y-92143368D01*
X104636632Y-91936525D01*
X104462240Y-91820000D01*
X104636632Y-91703475D01*
X104843475Y-91496632D01*
X105005990Y-91253411D01*
X105117932Y-90983158D01*
X105175000Y-90696260D01*
X105175000Y-90403740D01*
X105117932Y-90116842D01*
X105005990Y-89846589D01*
X104843475Y-89603368D01*
X104636632Y-89396525D01*
X104462240Y-89280000D01*
X104636632Y-89163475D01*
X104843475Y-88956632D01*
X105005990Y-88713411D01*
X105117932Y-88443158D01*
X105175000Y-88156260D01*
X105175000Y-87863740D01*
X105117932Y-87576842D01*
X105005990Y-87306589D01*
X104843475Y-87063368D01*
X104636632Y-86856525D01*
X104462240Y-86740000D01*
X104636632Y-86623475D01*
X104843475Y-86416632D01*
X105005990Y-86173411D01*
X105117932Y-85903158D01*
X105175000Y-85616260D01*
X105175000Y-85323740D01*
X105117932Y-85036842D01*
X105005990Y-84766589D01*
X104843475Y-84523368D01*
X104636632Y-84316525D01*
X104462240Y-84200000D01*
X104636632Y-84083475D01*
X104843475Y-83876632D01*
X105005990Y-83633411D01*
X105117932Y-83363158D01*
X105175000Y-83076260D01*
X105175000Y-82783740D01*
X105117932Y-82496842D01*
X105005990Y-82226589D01*
X104843475Y-81983368D01*
X104711620Y-81851513D01*
X104784180Y-81829502D01*
X104894494Y-81770537D01*
X104991185Y-81691185D01*
X105070537Y-81594494D01*
X105129502Y-81484180D01*
X105165812Y-81364482D01*
X105178072Y-81240000D01*
X105178072Y-79540000D01*
X105165812Y-79415518D01*
X105129502Y-79295820D01*
X105070537Y-79185506D01*
X104991185Y-79088815D01*
X104894494Y-79009463D01*
X104784180Y-78950498D01*
X104664482Y-78914188D01*
X104540000Y-78901928D01*
X103276729Y-78901928D01*
X102943804Y-78569003D01*
X102920001Y-78539999D01*
X102804276Y-78445026D01*
X102672247Y-78374454D01*
X102528986Y-78330997D01*
X102417333Y-78320000D01*
X102417322Y-78320000D01*
X102380000Y-78316324D01*
X102342678Y-78320000D01*
X98837000Y-78320000D01*
X98837000Y-70740000D01*
X104807724Y-70740000D01*
X104920962Y-70751103D01*
X104998845Y-70774617D01*
X105070672Y-70812809D01*
X105133716Y-70864227D01*
X105185570Y-70926907D01*
X105224264Y-70998470D01*
X105248322Y-71076187D01*
X105260088Y-71188131D01*
X105349896Y-98968781D01*
X105338897Y-99080962D01*
X105315383Y-99158845D01*
X105277192Y-99230671D01*
X105225774Y-99293716D01*
X105163089Y-99345573D01*
X105091531Y-99384264D01*
X105013813Y-99408322D01*
X104902705Y-99420000D01*
X77142276Y-99420000D01*
X77029038Y-99408897D01*
X76951155Y-99385383D01*
X76879329Y-99347192D01*
X76816284Y-99295774D01*
X76764427Y-99233089D01*
X76725736Y-99161531D01*
X76701678Y-99083813D01*
X76689892Y-98971680D01*
X76657830Y-90856890D01*
X76858524Y-90856890D01*
X76903175Y-91004099D01*
X77028359Y-91266920D01*
X77202412Y-91500269D01*
X77418645Y-91695178D01*
X77544255Y-91770000D01*
X77418645Y-91844822D01*
X77202412Y-92039731D01*
X77028359Y-92273080D01*
X76903175Y-92535901D01*
X76858524Y-92683110D01*
X76979845Y-92913000D01*
X78173000Y-92913000D01*
X78173000Y-90627000D01*
X78427000Y-90627000D01*
X78427000Y-92913000D01*
X79620155Y-92913000D01*
X79741476Y-92683110D01*
X79696825Y-92535901D01*
X79571641Y-92273080D01*
X79397588Y-92039731D01*
X79181355Y-91844822D01*
X79055745Y-91770000D01*
X79181355Y-91695178D01*
X79397588Y-91500269D01*
X79571641Y-91266920D01*
X79696825Y-91004099D01*
X79741476Y-90856890D01*
X79620155Y-90627000D01*
X78427000Y-90627000D01*
X78173000Y-90627000D01*
X76979845Y-90627000D01*
X76858524Y-90856890D01*
X76657830Y-90856890D01*
X76580127Y-71190983D01*
X76591103Y-71079038D01*
X76614617Y-71001155D01*
X76652809Y-70929328D01*
X76704227Y-70866284D01*
X76766907Y-70814430D01*
X76838470Y-70775736D01*
X76916187Y-70751678D01*
X77027295Y-70740000D01*
X83823000Y-70740000D01*
X83823000Y-78116652D01*
%TA.AperFunction,Conductor*%
D17*
G36*
X83823000Y-78116652D02*
G01*
X83721898Y-78074774D01*
X83521939Y-78035000D01*
X83318061Y-78035000D01*
X83118102Y-78074774D01*
X82929744Y-78152795D01*
X82760226Y-78266063D01*
X82616063Y-78410226D01*
X82502795Y-78579744D01*
X82424774Y-78768102D01*
X82385000Y-78968061D01*
X82385000Y-79171939D01*
X82424774Y-79371898D01*
X82502795Y-79560256D01*
X82616063Y-79729774D01*
X82760226Y-79873937D01*
X82929744Y-79987205D01*
X83118102Y-80065226D01*
X83318061Y-80105000D01*
X83521939Y-80105000D01*
X83721898Y-80065226D01*
X83910256Y-79987205D01*
X84079774Y-79873937D01*
X84113711Y-79840000D01*
X84213046Y-79840000D01*
X84204774Y-79849686D01*
X84197723Y-79859794D01*
X84189169Y-79868682D01*
X84183680Y-79875734D01*
X84167745Y-79896501D01*
X84161236Y-79906958D01*
X84153167Y-79916273D01*
X84148055Y-79923602D01*
X84133228Y-79945175D01*
X84127272Y-79955963D01*
X84119701Y-79965689D01*
X84114979Y-79973276D01*
X84101300Y-79995596D01*
X84095912Y-80006691D01*
X84088855Y-80016808D01*
X84084537Y-80024631D01*
X84072047Y-80047637D01*
X84067259Y-80058973D01*
X84060750Y-80069429D01*
X84056847Y-80077468D01*
X84045577Y-80101095D01*
X84041379Y-80112692D01*
X84035418Y-80123490D01*
X84031941Y-80131722D01*
X84021924Y-80155906D01*
X84018342Y-80167696D01*
X84012959Y-80178782D01*
X84009918Y-80187185D01*
X84001180Y-80211861D01*
X83998223Y-80223810D01*
X83993429Y-80235158D01*
X83990832Y-80243708D01*
X83983397Y-80268806D01*
X83981065Y-80280912D01*
X83976867Y-80292510D01*
X83974720Y-80301184D01*
X83968609Y-80326638D01*
X83966914Y-80338851D01*
X83963330Y-80350649D01*
X83961641Y-80359424D01*
X83956871Y-80385163D01*
X83955819Y-80397431D01*
X83952860Y-80409389D01*
X83951632Y-80418241D01*
X83948215Y-80444194D01*
X83947806Y-80456507D01*
X83945475Y-80468613D01*
X83944712Y-80477517D01*
X83942658Y-80503613D01*
X83942895Y-80515940D01*
X83941200Y-80528153D01*
X83940904Y-80537084D01*
X83940219Y-80563252D01*
X83941100Y-80575536D01*
X83940047Y-80587813D01*
X83940219Y-80596748D01*
X83940904Y-80622916D01*
X83942428Y-80635150D01*
X83942019Y-80647473D01*
X83942658Y-80656387D01*
X83944712Y-80682483D01*
X83946873Y-80694616D01*
X83947110Y-80706938D01*
X83948215Y-80715806D01*
X83951632Y-80741759D01*
X83954424Y-80753755D01*
X83955304Y-80766040D01*
X83956871Y-80774837D01*
X83961641Y-80800576D01*
X83965060Y-80812422D01*
X83966584Y-80824658D01*
X83968609Y-80833362D01*
X83974720Y-80858816D01*
X83978755Y-80870469D01*
X83980918Y-80882609D01*
X83983397Y-80891194D01*
X83990832Y-80916292D01*
X83995463Y-80927696D01*
X83998255Y-80939695D01*
X84001180Y-80948139D01*
X84009918Y-80972815D01*
X84015144Y-80983970D01*
X84018562Y-80995815D01*
X84021924Y-81004094D01*
X84031941Y-81028278D01*
X84037749Y-81039156D01*
X84041786Y-81050813D01*
X84045577Y-81058905D01*
X84056847Y-81082532D01*
X84063206Y-81093074D01*
X84067838Y-81104481D01*
X84072047Y-81112363D01*
X84084537Y-81135369D01*
X84091450Y-81145581D01*
X84096684Y-81156753D01*
X84101300Y-81164404D01*
X84114979Y-81186724D01*
X84122410Y-81196549D01*
X84128217Y-81207425D01*
X84133228Y-81214825D01*
X84148055Y-81236398D01*
X84155986Y-81245816D01*
X84162354Y-81256372D01*
X84167745Y-81263499D01*
X84183680Y-81284266D01*
X84192102Y-81293267D01*
X84199017Y-81303479D01*
X84204774Y-81310314D01*
X84221587Y-81330000D01*
X84204774Y-81349686D01*
X84197723Y-81359794D01*
X84189169Y-81368682D01*
X84183680Y-81375734D01*
X84167745Y-81396501D01*
X84161236Y-81406958D01*
X84153167Y-81416273D01*
X84148055Y-81423602D01*
X84133228Y-81445175D01*
X84127272Y-81455963D01*
X84119701Y-81465689D01*
X84114979Y-81473276D01*
X84101300Y-81495596D01*
X84095912Y-81506691D01*
X84088855Y-81516808D01*
X84084537Y-81524631D01*
X84072047Y-81547637D01*
X84067259Y-81558973D01*
X84060750Y-81569429D01*
X84056847Y-81577468D01*
X84045577Y-81601095D01*
X84041379Y-81612692D01*
X84035418Y-81623490D01*
X84031941Y-81631722D01*
X84021924Y-81655906D01*
X84018342Y-81667696D01*
X84012959Y-81678782D01*
X84009918Y-81687185D01*
X84001180Y-81711861D01*
X83998223Y-81723810D01*
X83993429Y-81735158D01*
X83990832Y-81743708D01*
X83983397Y-81768806D01*
X83981065Y-81780912D01*
X83976867Y-81792510D01*
X83974720Y-81801184D01*
X83968609Y-81826638D01*
X83966914Y-81838851D01*
X83963330Y-81850649D01*
X83961641Y-81859424D01*
X83956871Y-81885163D01*
X83955819Y-81897431D01*
X83952860Y-81909389D01*
X83951632Y-81918241D01*
X83948215Y-81944194D01*
X83947806Y-81956507D01*
X83945475Y-81968613D01*
X83944712Y-81977517D01*
X83942658Y-82003613D01*
X83942895Y-82015940D01*
X83941200Y-82028153D01*
X83940904Y-82037084D01*
X83940219Y-82063252D01*
X83941100Y-82075536D01*
X83940047Y-82087813D01*
X83940219Y-82096748D01*
X83940904Y-82122916D01*
X83942428Y-82135150D01*
X83942019Y-82147473D01*
X83942658Y-82156387D01*
X83944712Y-82182483D01*
X83946873Y-82194616D01*
X83947110Y-82206938D01*
X83948215Y-82215806D01*
X83951632Y-82241759D01*
X83954424Y-82253755D01*
X83955304Y-82266040D01*
X83956871Y-82274837D01*
X83961641Y-82300576D01*
X83965060Y-82312422D01*
X83966584Y-82324658D01*
X83968609Y-82333362D01*
X83974720Y-82358816D01*
X83978755Y-82370469D01*
X83980918Y-82382609D01*
X83983397Y-82391194D01*
X83990832Y-82416292D01*
X83995463Y-82427696D01*
X83998255Y-82439695D01*
X84001180Y-82448139D01*
X84009918Y-82472815D01*
X84015144Y-82483970D01*
X84018562Y-82495815D01*
X84021924Y-82504094D01*
X84031941Y-82528278D01*
X84037749Y-82539156D01*
X84041786Y-82550813D01*
X84045577Y-82558905D01*
X84056847Y-82582532D01*
X84063206Y-82593074D01*
X84067838Y-82604481D01*
X84072047Y-82612363D01*
X84084537Y-82635369D01*
X84091450Y-82645581D01*
X84096684Y-82656753D01*
X84101300Y-82664404D01*
X84114979Y-82686724D01*
X84122410Y-82696549D01*
X84128217Y-82707425D01*
X84133228Y-82714825D01*
X84148055Y-82736398D01*
X84155986Y-82745816D01*
X84162354Y-82756372D01*
X84167745Y-82763499D01*
X84183680Y-82784266D01*
X84192102Y-82793267D01*
X84199017Y-82803479D01*
X84204774Y-82810314D01*
X84213046Y-82820000D01*
X84203711Y-82820000D01*
X84129774Y-82746063D01*
X83960256Y-82632795D01*
X83771898Y-82554774D01*
X83571939Y-82515000D01*
X83368061Y-82515000D01*
X83168102Y-82554774D01*
X82979744Y-82632795D01*
X82810226Y-82746063D01*
X82666063Y-82890226D01*
X82552795Y-83059744D01*
X82474774Y-83248102D01*
X82435000Y-83448061D01*
X82435000Y-83651939D01*
X82474774Y-83851898D01*
X82552795Y-84040256D01*
X82666063Y-84209774D01*
X82810226Y-84353937D01*
X82852852Y-84382419D01*
X82735723Y-84445026D01*
X82657656Y-84509095D01*
X82619999Y-84539999D01*
X82596201Y-84568997D01*
X79965199Y-87200000D01*
X79578178Y-87200000D01*
X79453475Y-87013368D01*
X79246632Y-86806525D01*
X79072240Y-86690000D01*
X79246632Y-86573475D01*
X79453475Y-86366632D01*
X79615990Y-86123411D01*
X79727932Y-85853158D01*
X79785000Y-85566260D01*
X79785000Y-85273740D01*
X79727932Y-84986842D01*
X79615990Y-84716589D01*
X79453475Y-84473368D01*
X79246632Y-84266525D01*
X79072240Y-84150000D01*
X79246632Y-84033475D01*
X79453475Y-83826632D01*
X79615990Y-83583411D01*
X79727932Y-83313158D01*
X79785000Y-83026260D01*
X79785000Y-82733740D01*
X79727932Y-82446842D01*
X79615990Y-82176589D01*
X79453475Y-81933368D01*
X79321620Y-81801513D01*
X79394180Y-81779502D01*
X79504494Y-81720537D01*
X79601185Y-81641185D01*
X79680537Y-81544494D01*
X79739502Y-81434180D01*
X79775812Y-81314482D01*
X79788072Y-81190000D01*
X79788072Y-79490000D01*
X79775812Y-79365518D01*
X79739502Y-79245820D01*
X79680537Y-79135506D01*
X79601185Y-79038815D01*
X79504494Y-78959463D01*
X79394180Y-78900498D01*
X79274482Y-78864188D01*
X79150000Y-78851928D01*
X77450000Y-78851928D01*
X77325518Y-78864188D01*
X77205820Y-78900498D01*
X77095506Y-78959463D01*
X76998815Y-79038815D01*
X76919463Y-79135506D01*
X76860498Y-79245820D01*
X76824188Y-79365518D01*
X76811928Y-79490000D01*
X76811928Y-81190000D01*
X76824188Y-81314482D01*
X76860498Y-81434180D01*
X76919463Y-81544494D01*
X76998815Y-81641185D01*
X77095506Y-81720537D01*
X77205820Y-81779502D01*
X77278380Y-81801513D01*
X77146525Y-81933368D01*
X76984010Y-82176589D01*
X76872068Y-82446842D01*
X76815000Y-82733740D01*
X76815000Y-83026260D01*
X76872068Y-83313158D01*
X76984010Y-83583411D01*
X77146525Y-83826632D01*
X77353368Y-84033475D01*
X77527760Y-84150000D01*
X77353368Y-84266525D01*
X77146525Y-84473368D01*
X76984010Y-84716589D01*
X76872068Y-84986842D01*
X76815000Y-85273740D01*
X76815000Y-85566260D01*
X76872068Y-85853158D01*
X76984010Y-86123411D01*
X77146525Y-86366632D01*
X77353368Y-86573475D01*
X77527760Y-86690000D01*
X77353368Y-86806525D01*
X77146525Y-87013368D01*
X76984010Y-87256589D01*
X76872068Y-87526842D01*
X76815000Y-87813740D01*
X76815000Y-88106260D01*
X76872068Y-88393158D01*
X76984010Y-88663411D01*
X77146525Y-88906632D01*
X77353368Y-89113475D01*
X77535534Y-89235195D01*
X77418645Y-89304822D01*
X77202412Y-89499731D01*
X77028359Y-89733080D01*
X76903175Y-89995901D01*
X76858524Y-90143110D01*
X76979845Y-90373000D01*
X78173000Y-90373000D01*
X78173000Y-90353000D01*
X78427000Y-90353000D01*
X78427000Y-90373000D01*
X79620155Y-90373000D01*
X79741476Y-90143110D01*
X79696825Y-89995901D01*
X79571641Y-89733080D01*
X79397588Y-89499731D01*
X79181355Y-89304822D01*
X79064466Y-89235195D01*
X79246632Y-89113475D01*
X79453475Y-88906632D01*
X79578178Y-88720000D01*
X80242678Y-88720000D01*
X80280000Y-88723676D01*
X80317322Y-88720000D01*
X80317333Y-88720000D01*
X80428986Y-88709003D01*
X80572247Y-88665546D01*
X80704276Y-88594974D01*
X80820001Y-88500001D01*
X80843804Y-88470997D01*
X83474802Y-85840000D01*
X84231588Y-85840000D01*
X84238083Y-85848588D01*
X84244189Y-85855113D01*
X84262208Y-85874101D01*
X84271522Y-85882169D01*
X84279460Y-85891596D01*
X84285899Y-85897792D01*
X84304887Y-85915811D01*
X84314607Y-85923378D01*
X84323026Y-85932375D01*
X84329781Y-85938225D01*
X84349686Y-85955226D01*
X84359794Y-85962277D01*
X84368682Y-85970831D01*
X84375734Y-85976320D01*
X84396501Y-85992255D01*
X84406958Y-85998764D01*
X84416273Y-86006833D01*
X84423602Y-86011945D01*
X84445175Y-86026772D01*
X84455959Y-86032725D01*
X84465689Y-86040300D01*
X84473276Y-86045022D01*
X84495596Y-86058700D01*
X84506691Y-86064088D01*
X84516808Y-86071145D01*
X84524632Y-86075463D01*
X84547637Y-86087953D01*
X84558973Y-86092741D01*
X84569429Y-86099250D01*
X84577468Y-86103153D01*
X84601095Y-86114423D01*
X84612692Y-86118621D01*
X84623490Y-86124582D01*
X84631722Y-86128059D01*
X84655905Y-86138076D01*
X84667697Y-86141658D01*
X84678782Y-86147041D01*
X84687185Y-86150082D01*
X84711860Y-86158820D01*
X84723811Y-86161777D01*
X84735158Y-86166571D01*
X84743708Y-86169168D01*
X84768806Y-86176603D01*
X84780912Y-86178935D01*
X84792510Y-86183133D01*
X84801184Y-86185280D01*
X84826638Y-86191390D01*
X84838845Y-86193084D01*
X84850649Y-86196670D01*
X84859424Y-86198359D01*
X84885162Y-86203129D01*
X84897432Y-86204181D01*
X84909389Y-86207140D01*
X84918241Y-86208368D01*
X84944194Y-86211785D01*
X84956508Y-86212194D01*
X84968614Y-86214525D01*
X84977517Y-86215288D01*
X85003614Y-86217342D01*
X85015940Y-86217105D01*
X85028153Y-86218800D01*
X85037084Y-86219096D01*
X85063252Y-86219781D01*
X85067164Y-86219501D01*
X85071064Y-86219938D01*
X85080000Y-86220000D01*
X86440000Y-86220000D01*
X86440000Y-87330000D01*
X86440382Y-87333901D01*
X86440047Y-87337813D01*
X86440219Y-87346748D01*
X86440904Y-87372916D01*
X86442428Y-87385150D01*
X86442019Y-87397473D01*
X86442658Y-87406387D01*
X86444712Y-87432483D01*
X86446873Y-87444616D01*
X86447110Y-87456938D01*
X86448215Y-87465806D01*
X86451632Y-87491759D01*
X86454424Y-87503755D01*
X86455304Y-87516040D01*
X86456871Y-87524837D01*
X86461641Y-87550576D01*
X86465060Y-87562422D01*
X86466584Y-87574658D01*
X86468609Y-87583362D01*
X86474720Y-87608816D01*
X86478755Y-87620469D01*
X86480918Y-87632609D01*
X86483397Y-87641194D01*
X86490832Y-87666292D01*
X86495463Y-87677696D01*
X86498255Y-87689695D01*
X86501180Y-87698139D01*
X86509918Y-87722815D01*
X86515144Y-87733970D01*
X86518562Y-87745815D01*
X86521924Y-87754094D01*
X86531941Y-87778278D01*
X86537749Y-87789156D01*
X86541786Y-87800813D01*
X86545577Y-87808905D01*
X86556847Y-87832532D01*
X86563206Y-87843074D01*
X86567838Y-87854481D01*
X86572047Y-87862363D01*
X86584537Y-87885369D01*
X86591450Y-87895581D01*
X86596684Y-87906753D01*
X86601300Y-87914404D01*
X86614979Y-87936724D01*
X86622410Y-87946549D01*
X86628217Y-87957425D01*
X86633228Y-87964825D01*
X86648055Y-87986398D01*
X86655986Y-87995816D01*
X86662354Y-88006372D01*
X86667745Y-88013499D01*
X86683680Y-88034266D01*
X86692102Y-88043267D01*
X86699017Y-88053479D01*
X86704774Y-88060314D01*
X86721774Y-88080219D01*
X86730652Y-88088762D01*
X86738083Y-88098588D01*
X86744189Y-88105113D01*
X86762208Y-88124101D01*
X86771522Y-88132169D01*
X86779460Y-88141596D01*
X86785899Y-88147792D01*
X86795145Y-88156566D01*
X86692795Y-88309744D01*
X86614774Y-88498102D01*
X86575000Y-88698061D01*
X86575000Y-88901939D01*
X86614774Y-89101898D01*
X86692795Y-89290256D01*
X86806063Y-89459774D01*
X86950226Y-89603937D01*
X87119744Y-89717205D01*
X87308102Y-89795226D01*
X87508061Y-89835000D01*
X87711939Y-89835000D01*
X87911898Y-89795226D01*
X88100256Y-89717205D01*
X88269774Y-89603937D01*
X88413937Y-89459774D01*
X88527205Y-89290256D01*
X88605226Y-89101898D01*
X88645000Y-88901939D01*
X88645000Y-88698061D01*
X88605226Y-88498102D01*
X88536352Y-88331826D01*
X88547637Y-88337953D01*
X88558973Y-88342741D01*
X88569429Y-88349250D01*
X88577468Y-88353153D01*
X88601095Y-88364423D01*
X88612692Y-88368621D01*
X88623490Y-88374582D01*
X88631722Y-88378059D01*
X88655905Y-88388076D01*
X88667697Y-88391658D01*
X88678782Y-88397041D01*
X88687185Y-88400082D01*
X88711860Y-88408820D01*
X88723811Y-88411777D01*
X88735158Y-88416571D01*
X88743708Y-88419168D01*
X88768806Y-88426603D01*
X88780912Y-88428935D01*
X88792510Y-88433133D01*
X88801184Y-88435280D01*
X88826638Y-88441390D01*
X88838845Y-88443084D01*
X88850649Y-88446670D01*
X88859424Y-88448359D01*
X88885162Y-88453129D01*
X88897432Y-88454181D01*
X88909389Y-88457140D01*
X88918241Y-88458368D01*
X88944194Y-88461785D01*
X88956508Y-88462194D01*
X88968614Y-88464525D01*
X88977517Y-88465288D01*
X89003614Y-88467342D01*
X89015940Y-88467105D01*
X89028153Y-88468800D01*
X89037084Y-88469096D01*
X89063252Y-88469781D01*
X89075536Y-88468900D01*
X89087813Y-88469953D01*
X89096748Y-88469781D01*
X89122916Y-88469096D01*
X89135150Y-88467572D01*
X89147473Y-88467981D01*
X89156387Y-88467342D01*
X89182483Y-88465288D01*
X89194616Y-88463127D01*
X89206938Y-88462890D01*
X89215806Y-88461785D01*
X89241759Y-88458368D01*
X89253755Y-88455576D01*
X89266040Y-88454696D01*
X89274837Y-88453129D01*
X89300576Y-88448359D01*
X89312422Y-88444940D01*
X89324658Y-88443416D01*
X89333362Y-88441391D01*
X89358816Y-88435280D01*
X89370469Y-88431245D01*
X89382609Y-88429082D01*
X89391194Y-88426603D01*
X89416292Y-88419168D01*
X89427696Y-88414537D01*
X89439695Y-88411745D01*
X89448139Y-88408820D01*
X89472815Y-88400082D01*
X89483970Y-88394856D01*
X89495815Y-88391438D01*
X89504094Y-88388076D01*
X89528278Y-88378059D01*
X89539156Y-88372251D01*
X89550813Y-88368214D01*
X89558905Y-88364423D01*
X89582532Y-88353153D01*
X89593074Y-88346794D01*
X89604481Y-88342162D01*
X89612363Y-88337953D01*
X89635369Y-88325463D01*
X89645581Y-88318550D01*
X89656753Y-88313316D01*
X89664404Y-88308700D01*
X89686724Y-88295021D01*
X89696549Y-88287590D01*
X89707425Y-88281783D01*
X89714825Y-88276772D01*
X89736398Y-88261945D01*
X89745818Y-88254013D01*
X89756372Y-88247646D01*
X89763499Y-88242255D01*
X89784266Y-88226320D01*
X89793267Y-88217898D01*
X89803479Y-88210983D01*
X89810314Y-88205226D01*
X89820000Y-88196953D01*
X89820001Y-94385197D01*
X89385199Y-94820000D01*
X79578178Y-94820000D01*
X79453475Y-94633368D01*
X79246632Y-94426525D01*
X79064466Y-94304805D01*
X79181355Y-94235178D01*
X79397588Y-94040269D01*
X79571641Y-93806920D01*
X79696825Y-93544099D01*
X79741476Y-93396890D01*
X79620155Y-93167000D01*
X78427000Y-93167000D01*
X78427000Y-93187000D01*
X78173000Y-93187000D01*
X78173000Y-93167000D01*
X76979845Y-93167000D01*
X76858524Y-93396890D01*
X76903175Y-93544099D01*
X77028359Y-93806920D01*
X77202412Y-94040269D01*
X77418645Y-94235178D01*
X77535534Y-94304805D01*
X77353368Y-94426525D01*
X77146525Y-94633368D01*
X76984010Y-94876589D01*
X76872068Y-95146842D01*
X76815000Y-95433740D01*
X76815000Y-95726260D01*
X76872068Y-96013158D01*
X76984010Y-96283411D01*
X77146525Y-96526632D01*
X77353368Y-96733475D01*
X77596589Y-96895990D01*
X77866842Y-97007932D01*
X78153740Y-97065000D01*
X78446260Y-97065000D01*
X78733158Y-97007932D01*
X79003411Y-96895990D01*
X79246632Y-96733475D01*
X79453475Y-96526632D01*
X79578178Y-96340000D01*
X89662678Y-96340000D01*
X89700000Y-96343676D01*
X89737322Y-96340000D01*
X89737333Y-96340000D01*
X89848986Y-96329003D01*
X89992247Y-96285546D01*
X90124276Y-96214974D01*
X90240001Y-96120001D01*
X90263803Y-96090998D01*
X91091003Y-95263799D01*
X91120001Y-95240001D01*
X91157527Y-95194276D01*
X91214974Y-95124277D01*
X91285546Y-94992247D01*
X91299870Y-94945026D01*
X91325304Y-94861179D01*
X91330998Y-94918986D01*
X91338897Y-94945026D01*
X91374454Y-95062246D01*
X91445026Y-95194276D01*
X91516201Y-95281002D01*
X91540000Y-95310001D01*
X91568998Y-95333799D01*
X92376201Y-96141003D01*
X92399999Y-96170001D01*
X92515724Y-96264974D01*
X92647753Y-96335546D01*
X92791014Y-96379003D01*
X92902667Y-96390000D01*
X92902675Y-96390000D01*
X92940000Y-96393676D01*
X92977325Y-96390000D01*
X102411822Y-96390000D01*
X102536525Y-96576632D01*
X102743368Y-96783475D01*
X102986589Y-96945990D01*
X103256842Y-97057932D01*
X103543740Y-97115000D01*
X103836260Y-97115000D01*
X104123158Y-97057932D01*
X104393411Y-96945990D01*
X104636632Y-96783475D01*
X104843475Y-96576632D01*
X105005990Y-96333411D01*
X105117932Y-96063158D01*
X105175000Y-95776260D01*
X105175000Y-95483740D01*
X105117932Y-95196842D01*
X105005990Y-94926589D01*
X104843475Y-94683368D01*
X104636632Y-94476525D01*
X104462240Y-94360000D01*
X104636632Y-94243475D01*
X104843475Y-94036632D01*
X105005990Y-93793411D01*
X105117932Y-93523158D01*
X105175000Y-93236260D01*
X105175000Y-92943740D01*
X105117932Y-92656842D01*
X105005990Y-92386589D01*
X104843475Y-92143368D01*
X104636632Y-91936525D01*
X104462240Y-91820000D01*
X104636632Y-91703475D01*
X104843475Y-91496632D01*
X105005990Y-91253411D01*
X105117932Y-90983158D01*
X105175000Y-90696260D01*
X105175000Y-90403740D01*
X105117932Y-90116842D01*
X105005990Y-89846589D01*
X104843475Y-89603368D01*
X104636632Y-89396525D01*
X104462240Y-89280000D01*
X104636632Y-89163475D01*
X104843475Y-88956632D01*
X105005990Y-88713411D01*
X105117932Y-88443158D01*
X105175000Y-88156260D01*
X105175000Y-87863740D01*
X105117932Y-87576842D01*
X105005990Y-87306589D01*
X104843475Y-87063368D01*
X104636632Y-86856525D01*
X104462240Y-86740000D01*
X104636632Y-86623475D01*
X104843475Y-86416632D01*
X105005990Y-86173411D01*
X105117932Y-85903158D01*
X105175000Y-85616260D01*
X105175000Y-85323740D01*
X105117932Y-85036842D01*
X105005990Y-84766589D01*
X104843475Y-84523368D01*
X104636632Y-84316525D01*
X104462240Y-84200000D01*
X104636632Y-84083475D01*
X104843475Y-83876632D01*
X105005990Y-83633411D01*
X105117932Y-83363158D01*
X105175000Y-83076260D01*
X105175000Y-82783740D01*
X105117932Y-82496842D01*
X105005990Y-82226589D01*
X104843475Y-81983368D01*
X104711620Y-81851513D01*
X104784180Y-81829502D01*
X104894494Y-81770537D01*
X104991185Y-81691185D01*
X105070537Y-81594494D01*
X105129502Y-81484180D01*
X105165812Y-81364482D01*
X105178072Y-81240000D01*
X105178072Y-79540000D01*
X105165812Y-79415518D01*
X105129502Y-79295820D01*
X105070537Y-79185506D01*
X104991185Y-79088815D01*
X104894494Y-79009463D01*
X104784180Y-78950498D01*
X104664482Y-78914188D01*
X104540000Y-78901928D01*
X103276729Y-78901928D01*
X102943804Y-78569003D01*
X102920001Y-78539999D01*
X102804276Y-78445026D01*
X102672247Y-78374454D01*
X102528986Y-78330997D01*
X102417333Y-78320000D01*
X102417322Y-78320000D01*
X102380000Y-78316324D01*
X102342678Y-78320000D01*
X98837000Y-78320000D01*
X98837000Y-70740000D01*
X104807724Y-70740000D01*
X104920962Y-70751103D01*
X104998845Y-70774617D01*
X105070672Y-70812809D01*
X105133716Y-70864227D01*
X105185570Y-70926907D01*
X105224264Y-70998470D01*
X105248322Y-71076187D01*
X105260088Y-71188131D01*
X105349896Y-98968781D01*
X105338897Y-99080962D01*
X105315383Y-99158845D01*
X105277192Y-99230671D01*
X105225774Y-99293716D01*
X105163089Y-99345573D01*
X105091531Y-99384264D01*
X105013813Y-99408322D01*
X104902705Y-99420000D01*
X77142276Y-99420000D01*
X77029038Y-99408897D01*
X76951155Y-99385383D01*
X76879329Y-99347192D01*
X76816284Y-99295774D01*
X76764427Y-99233089D01*
X76725736Y-99161531D01*
X76701678Y-99083813D01*
X76689892Y-98971680D01*
X76657830Y-90856890D01*
X76858524Y-90856890D01*
X76903175Y-91004099D01*
X77028359Y-91266920D01*
X77202412Y-91500269D01*
X77418645Y-91695178D01*
X77544255Y-91770000D01*
X77418645Y-91844822D01*
X77202412Y-92039731D01*
X77028359Y-92273080D01*
X76903175Y-92535901D01*
X76858524Y-92683110D01*
X76979845Y-92913000D01*
X78173000Y-92913000D01*
X78173000Y-90627000D01*
X78427000Y-90627000D01*
X78427000Y-92913000D01*
X79620155Y-92913000D01*
X79741476Y-92683110D01*
X79696825Y-92535901D01*
X79571641Y-92273080D01*
X79397588Y-92039731D01*
X79181355Y-91844822D01*
X79055745Y-91770000D01*
X79181355Y-91695178D01*
X79397588Y-91500269D01*
X79571641Y-91266920D01*
X79696825Y-91004099D01*
X79741476Y-90856890D01*
X79620155Y-90627000D01*
X78427000Y-90627000D01*
X78173000Y-90627000D01*
X76979845Y-90627000D01*
X76858524Y-90856890D01*
X76657830Y-90856890D01*
X76580127Y-71190983D01*
X76591103Y-71079038D01*
X76614617Y-71001155D01*
X76652809Y-70929328D01*
X76704227Y-70866284D01*
X76766907Y-70814430D01*
X76838470Y-70775736D01*
X76916187Y-70751678D01*
X77027295Y-70740000D01*
X83823000Y-70740000D01*
X83823000Y-78116652D01*
G37*
%TD.AperFunction*%
%TD*%
M02*
