%TF.GenerationSoftware,KiCad,Pcbnew,(5.1.9-0-10_14)*%
%TF.CreationDate,2021-02-18T15:53:41+03:00*%
%TF.ProjectId,DA14531MOD-Breakout,44413134-3533-4314-9d4f-442d42726561,rev?*%
%TF.SameCoordinates,Original*%
%TF.FileFunction,Soldermask,Top*%
%TF.FilePolarity,Negative*%
%FSLAX46Y46*%
G04 Gerber Fmt 4.6, Leading zero omitted, Abs format (unit mm)*
G04 Created by KiCad (PCBNEW (5.1.9-0-10_14)) date 2021-02-18 15:53:41*
%MOMM*%
%LPD*%
G01*
G04 APERTURE LIST*
%ADD10C,0.010000*%
%ADD11O,1.700000X1.700000*%
%ADD12R,1.700000X1.700000*%
G04 APERTURE END LIST*
D10*
%TO.C,U1*%
G36*
X86980000Y-87930000D02*
G01*
X88180000Y-87930000D01*
X88180000Y-85730000D01*
X86980000Y-85730000D01*
X86980000Y-87930000D01*
G37*
X86980000Y-87930000D02*
X88180000Y-87930000D01*
X88180000Y-85730000D01*
X86980000Y-85730000D01*
X86980000Y-87930000D01*
G36*
X84480000Y-78480000D02*
G01*
X84480000Y-79680000D01*
X85780000Y-79680000D01*
X85780000Y-78480000D01*
X84480000Y-78480000D01*
G37*
X84480000Y-78480000D02*
X84480000Y-79680000D01*
X85780000Y-79680000D01*
X85780000Y-78480000D01*
X84480000Y-78480000D01*
G36*
X95980000Y-78480000D02*
G01*
X95980000Y-79680000D01*
X98180000Y-79680000D01*
X98180000Y-78480000D01*
X95980000Y-78480000D01*
G37*
X95980000Y-78480000D02*
X95980000Y-79680000D01*
X98180000Y-79680000D01*
X98180000Y-78480000D01*
X95980000Y-78480000D01*
G36*
X84480000Y-79980000D02*
G01*
X84480000Y-81180000D01*
X86680000Y-81180000D01*
X86680000Y-79980000D01*
X84480000Y-79980000D01*
G37*
X84480000Y-79980000D02*
X84480000Y-81180000D01*
X86680000Y-81180000D01*
X86680000Y-79980000D01*
X84480000Y-79980000D01*
G36*
X84480000Y-81480000D02*
G01*
X84480000Y-82680000D01*
X86680000Y-82680000D01*
X86680000Y-81480000D01*
X84480000Y-81480000D01*
G37*
X84480000Y-81480000D02*
X84480000Y-82680000D01*
X86680000Y-82680000D01*
X86680000Y-81480000D01*
X84480000Y-81480000D01*
G36*
X84480000Y-82980000D02*
G01*
X84480000Y-84180000D01*
X86680000Y-84180000D01*
X86680000Y-82980000D01*
X84480000Y-82980000D01*
G37*
X84480000Y-82980000D02*
X84480000Y-84180000D01*
X86680000Y-84180000D01*
X86680000Y-82980000D01*
X84480000Y-82980000D01*
G36*
X84480000Y-84480000D02*
G01*
X84480000Y-85680000D01*
X86680000Y-85680000D01*
X86680000Y-84480000D01*
X84480000Y-84480000D01*
G37*
X84480000Y-84480000D02*
X84480000Y-85680000D01*
X86680000Y-85680000D01*
X86680000Y-84480000D01*
X84480000Y-84480000D01*
G36*
X95980000Y-79980000D02*
G01*
X95980000Y-81180000D01*
X98180000Y-81180000D01*
X98180000Y-79980000D01*
X95980000Y-79980000D01*
G37*
X95980000Y-79980000D02*
X95980000Y-81180000D01*
X98180000Y-81180000D01*
X98180000Y-79980000D01*
X95980000Y-79980000D01*
G36*
X95980000Y-81480000D02*
G01*
X95980000Y-82680000D01*
X98180000Y-82680000D01*
X98180000Y-81480000D01*
X95980000Y-81480000D01*
G37*
X95980000Y-81480000D02*
X95980000Y-82680000D01*
X98180000Y-82680000D01*
X98180000Y-81480000D01*
X95980000Y-81480000D01*
G36*
X95980000Y-82980000D02*
G01*
X95980000Y-84180000D01*
X98180000Y-84180000D01*
X98180000Y-82980000D01*
X95980000Y-82980000D01*
G37*
X95980000Y-82980000D02*
X95980000Y-84180000D01*
X98180000Y-84180000D01*
X98180000Y-82980000D01*
X95980000Y-82980000D01*
G36*
X95980000Y-84480000D02*
G01*
X95980000Y-85680000D01*
X98180000Y-85680000D01*
X98180000Y-84480000D01*
X95980000Y-84480000D01*
G37*
X95980000Y-84480000D02*
X95980000Y-85680000D01*
X98180000Y-85680000D01*
X98180000Y-84480000D01*
X95980000Y-84480000D01*
G36*
X88480000Y-87930000D02*
G01*
X89680000Y-87930000D01*
X89680000Y-85730000D01*
X88480000Y-85730000D01*
X88480000Y-87930000D01*
G37*
X88480000Y-87930000D02*
X89680000Y-87930000D01*
X89680000Y-85730000D01*
X88480000Y-85730000D01*
X88480000Y-87930000D01*
G36*
X89980000Y-87930000D02*
G01*
X91180000Y-87930000D01*
X91180000Y-85730000D01*
X89980000Y-85730000D01*
X89980000Y-87930000D01*
G37*
X89980000Y-87930000D02*
X91180000Y-87930000D01*
X91180000Y-85730000D01*
X89980000Y-85730000D01*
X89980000Y-87930000D01*
G36*
X91480000Y-87930000D02*
G01*
X92680000Y-87930000D01*
X92680000Y-85730000D01*
X91480000Y-85730000D01*
X91480000Y-87930000D01*
G37*
X91480000Y-87930000D02*
X92680000Y-87930000D01*
X92680000Y-85730000D01*
X91480000Y-85730000D01*
X91480000Y-87930000D01*
G36*
X92980000Y-87930000D02*
G01*
X94180000Y-87930000D01*
X94180000Y-85730000D01*
X92980000Y-85730000D01*
X92980000Y-87930000D01*
G37*
X92980000Y-87930000D02*
X94180000Y-87930000D01*
X94180000Y-85730000D01*
X92980000Y-85730000D01*
X92980000Y-87930000D01*
G36*
X94480000Y-87930000D02*
G01*
X95680000Y-87930000D01*
X95680000Y-85730000D01*
X94480000Y-85730000D01*
X94480000Y-87930000D01*
G37*
X94480000Y-87930000D02*
X95680000Y-87930000D01*
X95680000Y-85730000D01*
X94480000Y-85730000D01*
X94480000Y-87930000D01*
%TD*%
D11*
%TO.C,J1*%
X78300000Y-95580000D03*
X78300000Y-93040000D03*
X78300000Y-90500000D03*
X78300000Y-87960000D03*
X78300000Y-85420000D03*
X78300000Y-82880000D03*
D12*
X78300000Y-80340000D03*
%TD*%
%TO.C,J2*%
X103690000Y-80390000D03*
D11*
X103690000Y-82930000D03*
X103690000Y-85470000D03*
X103690000Y-88010000D03*
X103690000Y-90550000D03*
X103690000Y-93090000D03*
X103690000Y-95630000D03*
%TD*%
M02*
